G75*
%MOIN*%
%OFA0B0*%
%FSLAX25Y25*%
%IPPOS*%
%LPD*%
%AMOC8*
5,1,8,0,0,1.08239X$1,22.5*
%
%ADD10C,0.01600*%
%ADD11C,0.00000*%
D10*
X0095000Y0092524D02*
X0095000Y0297524D01*
X0305000Y0297524D01*
X0305000Y0092524D01*
X0095000Y0092524D01*
D11*
X0197500Y0237524D02*
X0197502Y0237685D01*
X0197508Y0237845D01*
X0197518Y0238006D01*
X0197532Y0238166D01*
X0197550Y0238326D01*
X0197571Y0238485D01*
X0197597Y0238644D01*
X0197627Y0238802D01*
X0197660Y0238959D01*
X0197698Y0239116D01*
X0197739Y0239271D01*
X0197784Y0239425D01*
X0197833Y0239578D01*
X0197886Y0239730D01*
X0197942Y0239881D01*
X0198003Y0240030D01*
X0198066Y0240178D01*
X0198134Y0240324D01*
X0198205Y0240468D01*
X0198279Y0240610D01*
X0198357Y0240751D01*
X0198439Y0240889D01*
X0198524Y0241026D01*
X0198612Y0241160D01*
X0198704Y0241292D01*
X0198799Y0241422D01*
X0198897Y0241550D01*
X0198998Y0241675D01*
X0199102Y0241797D01*
X0199209Y0241917D01*
X0199319Y0242034D01*
X0199432Y0242149D01*
X0199548Y0242260D01*
X0199667Y0242369D01*
X0199788Y0242474D01*
X0199912Y0242577D01*
X0200038Y0242677D01*
X0200166Y0242773D01*
X0200297Y0242866D01*
X0200431Y0242956D01*
X0200566Y0243043D01*
X0200704Y0243126D01*
X0200843Y0243206D01*
X0200985Y0243282D01*
X0201128Y0243355D01*
X0201273Y0243424D01*
X0201420Y0243490D01*
X0201568Y0243552D01*
X0201718Y0243610D01*
X0201869Y0243665D01*
X0202022Y0243716D01*
X0202176Y0243763D01*
X0202331Y0243806D01*
X0202487Y0243845D01*
X0202643Y0243881D01*
X0202801Y0243912D01*
X0202959Y0243940D01*
X0203118Y0243964D01*
X0203278Y0243984D01*
X0203438Y0244000D01*
X0203598Y0244012D01*
X0203759Y0244020D01*
X0203920Y0244024D01*
X0204080Y0244024D01*
X0204241Y0244020D01*
X0204402Y0244012D01*
X0204562Y0244000D01*
X0204722Y0243984D01*
X0204882Y0243964D01*
X0205041Y0243940D01*
X0205199Y0243912D01*
X0205357Y0243881D01*
X0205513Y0243845D01*
X0205669Y0243806D01*
X0205824Y0243763D01*
X0205978Y0243716D01*
X0206131Y0243665D01*
X0206282Y0243610D01*
X0206432Y0243552D01*
X0206580Y0243490D01*
X0206727Y0243424D01*
X0206872Y0243355D01*
X0207015Y0243282D01*
X0207157Y0243206D01*
X0207296Y0243126D01*
X0207434Y0243043D01*
X0207569Y0242956D01*
X0207703Y0242866D01*
X0207834Y0242773D01*
X0207962Y0242677D01*
X0208088Y0242577D01*
X0208212Y0242474D01*
X0208333Y0242369D01*
X0208452Y0242260D01*
X0208568Y0242149D01*
X0208681Y0242034D01*
X0208791Y0241917D01*
X0208898Y0241797D01*
X0209002Y0241675D01*
X0209103Y0241550D01*
X0209201Y0241422D01*
X0209296Y0241292D01*
X0209388Y0241160D01*
X0209476Y0241026D01*
X0209561Y0240889D01*
X0209643Y0240751D01*
X0209721Y0240610D01*
X0209795Y0240468D01*
X0209866Y0240324D01*
X0209934Y0240178D01*
X0209997Y0240030D01*
X0210058Y0239881D01*
X0210114Y0239730D01*
X0210167Y0239578D01*
X0210216Y0239425D01*
X0210261Y0239271D01*
X0210302Y0239116D01*
X0210340Y0238959D01*
X0210373Y0238802D01*
X0210403Y0238644D01*
X0210429Y0238485D01*
X0210450Y0238326D01*
X0210468Y0238166D01*
X0210482Y0238006D01*
X0210492Y0237845D01*
X0210498Y0237685D01*
X0210500Y0237524D01*
X0210498Y0237363D01*
X0210492Y0237203D01*
X0210482Y0237042D01*
X0210468Y0236882D01*
X0210450Y0236722D01*
X0210429Y0236563D01*
X0210403Y0236404D01*
X0210373Y0236246D01*
X0210340Y0236089D01*
X0210302Y0235932D01*
X0210261Y0235777D01*
X0210216Y0235623D01*
X0210167Y0235470D01*
X0210114Y0235318D01*
X0210058Y0235167D01*
X0209997Y0235018D01*
X0209934Y0234870D01*
X0209866Y0234724D01*
X0209795Y0234580D01*
X0209721Y0234438D01*
X0209643Y0234297D01*
X0209561Y0234159D01*
X0209476Y0234022D01*
X0209388Y0233888D01*
X0209296Y0233756D01*
X0209201Y0233626D01*
X0209103Y0233498D01*
X0209002Y0233373D01*
X0208898Y0233251D01*
X0208791Y0233131D01*
X0208681Y0233014D01*
X0208568Y0232899D01*
X0208452Y0232788D01*
X0208333Y0232679D01*
X0208212Y0232574D01*
X0208088Y0232471D01*
X0207962Y0232371D01*
X0207834Y0232275D01*
X0207703Y0232182D01*
X0207569Y0232092D01*
X0207434Y0232005D01*
X0207296Y0231922D01*
X0207157Y0231842D01*
X0207015Y0231766D01*
X0206872Y0231693D01*
X0206727Y0231624D01*
X0206580Y0231558D01*
X0206432Y0231496D01*
X0206282Y0231438D01*
X0206131Y0231383D01*
X0205978Y0231332D01*
X0205824Y0231285D01*
X0205669Y0231242D01*
X0205513Y0231203D01*
X0205357Y0231167D01*
X0205199Y0231136D01*
X0205041Y0231108D01*
X0204882Y0231084D01*
X0204722Y0231064D01*
X0204562Y0231048D01*
X0204402Y0231036D01*
X0204241Y0231028D01*
X0204080Y0231024D01*
X0203920Y0231024D01*
X0203759Y0231028D01*
X0203598Y0231036D01*
X0203438Y0231048D01*
X0203278Y0231064D01*
X0203118Y0231084D01*
X0202959Y0231108D01*
X0202801Y0231136D01*
X0202643Y0231167D01*
X0202487Y0231203D01*
X0202331Y0231242D01*
X0202176Y0231285D01*
X0202022Y0231332D01*
X0201869Y0231383D01*
X0201718Y0231438D01*
X0201568Y0231496D01*
X0201420Y0231558D01*
X0201273Y0231624D01*
X0201128Y0231693D01*
X0200985Y0231766D01*
X0200843Y0231842D01*
X0200704Y0231922D01*
X0200566Y0232005D01*
X0200431Y0232092D01*
X0200297Y0232182D01*
X0200166Y0232275D01*
X0200038Y0232371D01*
X0199912Y0232471D01*
X0199788Y0232574D01*
X0199667Y0232679D01*
X0199548Y0232788D01*
X0199432Y0232899D01*
X0199319Y0233014D01*
X0199209Y0233131D01*
X0199102Y0233251D01*
X0198998Y0233373D01*
X0198897Y0233498D01*
X0198799Y0233626D01*
X0198704Y0233756D01*
X0198612Y0233888D01*
X0198524Y0234022D01*
X0198439Y0234159D01*
X0198357Y0234297D01*
X0198279Y0234438D01*
X0198205Y0234580D01*
X0198134Y0234724D01*
X0198066Y0234870D01*
X0198003Y0235018D01*
X0197942Y0235167D01*
X0197886Y0235318D01*
X0197833Y0235470D01*
X0197784Y0235623D01*
X0197739Y0235777D01*
X0197698Y0235932D01*
X0197660Y0236089D01*
X0197627Y0236246D01*
X0197597Y0236404D01*
X0197571Y0236563D01*
X0197550Y0236722D01*
X0197532Y0236882D01*
X0197518Y0237042D01*
X0197508Y0237203D01*
X0197502Y0237363D01*
X0197500Y0237524D01*
M02*
