G75*
%MOIN*%
%OFA0B0*%
%FSLAX25Y25*%
%IPPOS*%
%LPD*%
%AMOC8*
5,1,8,0,0,1.08239X$1,22.5*
%
%ADD10C,0.00600*%
%ADD11C,0.00800*%
%ADD12R,0.10000X0.02000*%
%ADD13R,0.03000X0.07500*%
%ADD14C,0.00200*%
%ADD15R,0.02500X0.03000*%
%ADD16R,0.11000X0.05000*%
%ADD17C,0.00500*%
%ADD18C,0.00591*%
D10*
X0145296Y0118558D02*
X0146030Y0117824D01*
X0148966Y0117824D01*
X0149700Y0118558D01*
X0149700Y0120025D01*
X0148966Y0120759D01*
X0147498Y0120759D01*
X0147498Y0119292D01*
X0146030Y0120759D02*
X0145296Y0120025D01*
X0145296Y0118558D01*
X0145296Y0122428D02*
X0149700Y0125363D01*
X0145296Y0125363D01*
X0145296Y0127031D02*
X0145296Y0129233D01*
X0146030Y0129967D01*
X0148966Y0129967D01*
X0149700Y0129233D01*
X0149700Y0127031D01*
X0145296Y0127031D01*
X0145296Y0122428D02*
X0149700Y0122428D01*
X0155296Y0122428D02*
X0158232Y0122428D01*
X0159700Y0123895D01*
X0158232Y0125363D01*
X0155296Y0125363D01*
X0155296Y0120759D02*
X0155296Y0117824D01*
X0157498Y0117824D01*
X0156764Y0119292D01*
X0156764Y0120025D01*
X0157498Y0120759D01*
X0158966Y0120759D01*
X0159700Y0120025D01*
X0159700Y0118558D01*
X0158966Y0117824D01*
X0170764Y0133200D02*
X0169296Y0134668D01*
X0173700Y0134668D01*
X0173700Y0133200D02*
X0173700Y0136136D01*
X0173700Y0137804D02*
X0169296Y0137804D01*
X0173700Y0140740D01*
X0169296Y0140740D01*
X0171498Y0142408D02*
X0171498Y0145344D01*
X0170030Y0147012D02*
X0169296Y0147746D01*
X0169296Y0149214D01*
X0170030Y0149948D01*
X0172966Y0147012D01*
X0173700Y0147746D01*
X0173700Y0149214D01*
X0172966Y0149948D01*
X0170030Y0149948D01*
X0170030Y0151616D02*
X0169296Y0152350D01*
X0169296Y0153818D01*
X0170030Y0154552D01*
X0172966Y0151616D01*
X0173700Y0152350D01*
X0173700Y0153818D01*
X0172966Y0154552D01*
X0170030Y0154552D01*
X0171498Y0156220D02*
X0171498Y0159155D01*
X0169296Y0158422D02*
X0171498Y0156220D01*
X0173700Y0158422D02*
X0169296Y0158422D01*
X0175000Y0155524D02*
X0185000Y0155524D01*
X0185000Y0139524D01*
X0175000Y0139524D01*
X0175000Y0155524D01*
X0172966Y0151616D02*
X0170030Y0151616D01*
X0170030Y0147012D02*
X0172966Y0147012D01*
X0173700Y0144610D02*
X0169296Y0144610D01*
X0171498Y0142408D01*
X0177500Y0143524D02*
X0180000Y0147524D01*
X0177500Y0147524D01*
X0180000Y0147524D02*
X0182500Y0147524D01*
X0180000Y0147524D02*
X0180000Y0150024D01*
X0180000Y0147524D02*
X0182500Y0143524D01*
X0177500Y0143524D01*
X0180000Y0141524D02*
X0180000Y0147524D01*
X0192500Y0147524D02*
X0195000Y0147524D01*
X0197500Y0147524D01*
X0195000Y0147524D02*
X0192500Y0151524D01*
X0197500Y0151524D01*
X0195000Y0147524D01*
X0195000Y0153524D01*
X0190000Y0155524D02*
X0190000Y0139524D01*
X0200000Y0139524D01*
X0200000Y0155524D01*
X0190000Y0155524D01*
X0195000Y0147524D02*
X0195000Y0145024D01*
X0201296Y0146233D02*
X0203498Y0144031D01*
X0203498Y0146967D01*
X0204966Y0148635D02*
X0202030Y0148635D01*
X0201296Y0149369D01*
X0201296Y0150837D01*
X0202030Y0151571D01*
X0204966Y0148635D01*
X0205700Y0149369D01*
X0205700Y0150837D01*
X0204966Y0151571D01*
X0202030Y0151571D01*
X0202030Y0153239D02*
X0201296Y0153973D01*
X0201296Y0155441D01*
X0202030Y0156175D01*
X0204966Y0153239D01*
X0205700Y0153973D01*
X0205700Y0155441D01*
X0204966Y0156175D01*
X0202030Y0156175D01*
X0203498Y0157843D02*
X0201296Y0160045D01*
X0205700Y0160045D01*
X0203498Y0160779D02*
X0203498Y0157843D01*
X0204966Y0153239D02*
X0202030Y0153239D01*
X0201296Y0146233D02*
X0205700Y0146233D01*
X0205700Y0142363D02*
X0201296Y0142363D01*
X0201296Y0139428D02*
X0205700Y0142363D01*
X0205700Y0139428D02*
X0201296Y0139428D01*
X0201296Y0136292D02*
X0205700Y0136292D01*
X0205700Y0137759D02*
X0205700Y0134824D01*
X0202764Y0134824D02*
X0201296Y0136292D01*
X0224756Y0125759D02*
X0226223Y0127227D01*
X0226223Y0122824D01*
X0224756Y0122824D02*
X0227691Y0122824D01*
X0229359Y0123558D02*
X0232295Y0126493D01*
X0232295Y0123558D01*
X0231561Y0122824D01*
X0230093Y0122824D01*
X0229359Y0123558D01*
X0229359Y0126493D01*
X0230093Y0127227D01*
X0231561Y0127227D01*
X0232295Y0126493D01*
X0233963Y0127227D02*
X0233963Y0122824D01*
X0233963Y0124292D02*
X0236165Y0125759D01*
X0233963Y0124292D02*
X0236165Y0122824D01*
X0250300Y0123558D02*
X0251034Y0122824D01*
X0252502Y0122824D01*
X0253236Y0123558D01*
X0253236Y0125025D01*
X0252502Y0125759D01*
X0251768Y0125759D01*
X0250300Y0125025D01*
X0250300Y0127227D01*
X0253236Y0127227D01*
X0254904Y0127227D02*
X0254904Y0124292D01*
X0256372Y0122824D01*
X0257840Y0124292D01*
X0257840Y0127227D01*
X0262796Y0132824D02*
X0267200Y0132824D01*
X0267200Y0135759D01*
X0266466Y0137428D02*
X0264998Y0137428D01*
X0264264Y0138162D01*
X0264264Y0139629D01*
X0264998Y0140363D01*
X0265732Y0140363D01*
X0265732Y0137428D01*
X0266466Y0137428D02*
X0267200Y0138162D01*
X0267200Y0139629D01*
X0270000Y0140024D02*
X0272500Y0137524D01*
X0277500Y0137524D01*
X0280000Y0140024D01*
X0280000Y0145024D01*
X0277500Y0147524D01*
X0280000Y0150024D01*
X0280000Y0155024D01*
X0277500Y0157524D01*
X0280000Y0160024D01*
X0280000Y0165024D01*
X0277500Y0167524D01*
X0272500Y0167524D01*
X0270000Y0165024D01*
X0270000Y0160024D01*
X0272500Y0157524D01*
X0277500Y0157524D01*
X0272500Y0157524D02*
X0270000Y0155024D01*
X0270000Y0150024D01*
X0272500Y0147524D01*
X0277500Y0147524D01*
X0272500Y0147524D02*
X0270000Y0145024D01*
X0270000Y0140024D01*
X0267200Y0142765D02*
X0263530Y0142765D01*
X0262796Y0143499D01*
X0264264Y0145101D02*
X0264264Y0146569D01*
X0263530Y0145835D02*
X0266466Y0145835D01*
X0267200Y0146569D01*
X0264998Y0143499D02*
X0264998Y0142031D01*
X0275300Y0135025D02*
X0277502Y0135025D01*
X0278236Y0134292D01*
X0278236Y0133558D01*
X0277502Y0132824D01*
X0276034Y0132824D01*
X0275300Y0133558D01*
X0275300Y0135025D01*
X0276768Y0136493D01*
X0278236Y0137227D01*
X0279904Y0137227D02*
X0279904Y0134292D01*
X0281372Y0132824D01*
X0282840Y0134292D01*
X0282840Y0137227D01*
X0267200Y0153508D02*
X0266466Y0152774D01*
X0267200Y0153508D02*
X0267200Y0154976D01*
X0266466Y0155710D01*
X0265732Y0155710D01*
X0264998Y0154976D01*
X0264998Y0153508D01*
X0264264Y0152774D01*
X0263530Y0152774D01*
X0262796Y0153508D01*
X0262796Y0154976D01*
X0263530Y0155710D01*
X0264998Y0157378D02*
X0264264Y0158112D01*
X0264264Y0159580D01*
X0264998Y0160314D01*
X0265732Y0160314D01*
X0265732Y0157378D01*
X0266466Y0157378D02*
X0264998Y0157378D01*
X0266466Y0157378D02*
X0267200Y0158112D01*
X0267200Y0159580D01*
X0267200Y0161982D02*
X0264264Y0161982D01*
X0264264Y0163450D02*
X0264264Y0164184D01*
X0264264Y0163450D02*
X0265732Y0161982D01*
X0264264Y0165818D02*
X0267200Y0167286D01*
X0264264Y0168754D01*
X0264998Y0170422D02*
X0266466Y0170422D01*
X0267200Y0171156D01*
X0267200Y0172624D01*
X0266466Y0173358D01*
X0264998Y0173358D01*
X0264264Y0172624D01*
X0264264Y0171156D01*
X0264998Y0170422D01*
X0262500Y0172024D02*
X0255000Y0172024D01*
X0255000Y0175524D01*
X0249000Y0175524D01*
X0249000Y0172024D01*
X0200000Y0172024D01*
X0200000Y0213024D01*
X0249000Y0213024D01*
X0249000Y0209524D01*
X0255000Y0209524D01*
X0255000Y0213024D01*
X0262500Y0213024D01*
X0262500Y0172024D01*
X0257444Y0171493D02*
X0257444Y0168558D01*
X0256710Y0167824D01*
X0254508Y0167824D01*
X0254508Y0172227D01*
X0256710Y0172227D01*
X0257444Y0171493D01*
X0252840Y0172227D02*
X0252840Y0167824D01*
X0249904Y0172227D01*
X0249904Y0167824D01*
X0248236Y0168558D02*
X0248236Y0170025D01*
X0246768Y0170025D01*
X0248236Y0168558D02*
X0247502Y0167824D01*
X0246034Y0167824D01*
X0245300Y0168558D01*
X0245300Y0171493D01*
X0246034Y0172227D01*
X0247502Y0172227D01*
X0248236Y0171493D01*
X0275300Y0171493D02*
X0275300Y0168558D01*
X0276034Y0167824D01*
X0277502Y0167824D01*
X0278236Y0168558D01*
X0278236Y0170025D01*
X0276768Y0170025D01*
X0278236Y0171493D02*
X0277502Y0172227D01*
X0276034Y0172227D01*
X0275300Y0171493D01*
X0279904Y0172227D02*
X0279904Y0167824D01*
X0282840Y0167824D02*
X0279904Y0172227D01*
X0282840Y0172227D02*
X0282840Y0167824D01*
X0284508Y0167824D02*
X0286710Y0167824D01*
X0287444Y0168558D01*
X0287444Y0171493D01*
X0286710Y0172227D01*
X0284508Y0172227D01*
X0284508Y0167824D01*
X0241900Y0192524D02*
X0241902Y0192698D01*
X0241909Y0192872D01*
X0241919Y0193046D01*
X0241934Y0193220D01*
X0241953Y0193393D01*
X0241977Y0193566D01*
X0242005Y0193738D01*
X0242036Y0193909D01*
X0242073Y0194080D01*
X0242113Y0194249D01*
X0242157Y0194418D01*
X0242206Y0194585D01*
X0242258Y0194751D01*
X0242315Y0194916D01*
X0242376Y0195079D01*
X0242440Y0195241D01*
X0242509Y0195401D01*
X0242582Y0195560D01*
X0242658Y0195716D01*
X0242738Y0195871D01*
X0242822Y0196024D01*
X0242910Y0196174D01*
X0243002Y0196322D01*
X0243097Y0196469D01*
X0243195Y0196612D01*
X0243297Y0196753D01*
X0243403Y0196892D01*
X0243512Y0197028D01*
X0243624Y0197162D01*
X0243739Y0197292D01*
X0243858Y0197420D01*
X0243980Y0197544D01*
X0244104Y0197666D01*
X0244232Y0197785D01*
X0244362Y0197900D01*
X0244496Y0198012D01*
X0244632Y0198121D01*
X0244771Y0198227D01*
X0244912Y0198329D01*
X0245055Y0198427D01*
X0245202Y0198522D01*
X0245350Y0198614D01*
X0245500Y0198702D01*
X0245653Y0198786D01*
X0245808Y0198866D01*
X0245964Y0198942D01*
X0246123Y0199015D01*
X0246283Y0199084D01*
X0246445Y0199148D01*
X0246608Y0199209D01*
X0246773Y0199266D01*
X0246939Y0199318D01*
X0247106Y0199367D01*
X0247275Y0199411D01*
X0247444Y0199451D01*
X0247615Y0199488D01*
X0247786Y0199519D01*
X0247958Y0199547D01*
X0248131Y0199571D01*
X0248304Y0199590D01*
X0248478Y0199605D01*
X0248652Y0199615D01*
X0248826Y0199622D01*
X0249000Y0199624D01*
X0249174Y0199622D01*
X0249348Y0199615D01*
X0249522Y0199605D01*
X0249696Y0199590D01*
X0249869Y0199571D01*
X0250042Y0199547D01*
X0250214Y0199519D01*
X0250385Y0199488D01*
X0250556Y0199451D01*
X0250725Y0199411D01*
X0250894Y0199367D01*
X0251061Y0199318D01*
X0251227Y0199266D01*
X0251392Y0199209D01*
X0251555Y0199148D01*
X0251717Y0199084D01*
X0251877Y0199015D01*
X0252036Y0198942D01*
X0252192Y0198866D01*
X0252347Y0198786D01*
X0252500Y0198702D01*
X0252650Y0198614D01*
X0252798Y0198522D01*
X0252945Y0198427D01*
X0253088Y0198329D01*
X0253229Y0198227D01*
X0253368Y0198121D01*
X0253504Y0198012D01*
X0253638Y0197900D01*
X0253768Y0197785D01*
X0253896Y0197666D01*
X0254020Y0197544D01*
X0254142Y0197420D01*
X0254261Y0197292D01*
X0254376Y0197162D01*
X0254488Y0197028D01*
X0254597Y0196892D01*
X0254703Y0196753D01*
X0254805Y0196612D01*
X0254903Y0196469D01*
X0254998Y0196322D01*
X0255090Y0196174D01*
X0255178Y0196024D01*
X0255262Y0195871D01*
X0255342Y0195716D01*
X0255418Y0195560D01*
X0255491Y0195401D01*
X0255560Y0195241D01*
X0255624Y0195079D01*
X0255685Y0194916D01*
X0255742Y0194751D01*
X0255794Y0194585D01*
X0255843Y0194418D01*
X0255887Y0194249D01*
X0255927Y0194080D01*
X0255964Y0193909D01*
X0255995Y0193738D01*
X0256023Y0193566D01*
X0256047Y0193393D01*
X0256066Y0193220D01*
X0256081Y0193046D01*
X0256091Y0192872D01*
X0256098Y0192698D01*
X0256100Y0192524D01*
X0256098Y0192350D01*
X0256091Y0192176D01*
X0256081Y0192002D01*
X0256066Y0191828D01*
X0256047Y0191655D01*
X0256023Y0191482D01*
X0255995Y0191310D01*
X0255964Y0191139D01*
X0255927Y0190968D01*
X0255887Y0190799D01*
X0255843Y0190630D01*
X0255794Y0190463D01*
X0255742Y0190297D01*
X0255685Y0190132D01*
X0255624Y0189969D01*
X0255560Y0189807D01*
X0255491Y0189647D01*
X0255418Y0189488D01*
X0255342Y0189332D01*
X0255262Y0189177D01*
X0255178Y0189024D01*
X0255090Y0188874D01*
X0254998Y0188726D01*
X0254903Y0188579D01*
X0254805Y0188436D01*
X0254703Y0188295D01*
X0254597Y0188156D01*
X0254488Y0188020D01*
X0254376Y0187886D01*
X0254261Y0187756D01*
X0254142Y0187628D01*
X0254020Y0187504D01*
X0253896Y0187382D01*
X0253768Y0187263D01*
X0253638Y0187148D01*
X0253504Y0187036D01*
X0253368Y0186927D01*
X0253229Y0186821D01*
X0253088Y0186719D01*
X0252945Y0186621D01*
X0252798Y0186526D01*
X0252650Y0186434D01*
X0252500Y0186346D01*
X0252347Y0186262D01*
X0252192Y0186182D01*
X0252036Y0186106D01*
X0251877Y0186033D01*
X0251717Y0185964D01*
X0251555Y0185900D01*
X0251392Y0185839D01*
X0251227Y0185782D01*
X0251061Y0185730D01*
X0250894Y0185681D01*
X0250725Y0185637D01*
X0250556Y0185597D01*
X0250385Y0185560D01*
X0250214Y0185529D01*
X0250042Y0185501D01*
X0249869Y0185477D01*
X0249696Y0185458D01*
X0249522Y0185443D01*
X0249348Y0185433D01*
X0249174Y0185426D01*
X0249000Y0185424D01*
X0248826Y0185426D01*
X0248652Y0185433D01*
X0248478Y0185443D01*
X0248304Y0185458D01*
X0248131Y0185477D01*
X0247958Y0185501D01*
X0247786Y0185529D01*
X0247615Y0185560D01*
X0247444Y0185597D01*
X0247275Y0185637D01*
X0247106Y0185681D01*
X0246939Y0185730D01*
X0246773Y0185782D01*
X0246608Y0185839D01*
X0246445Y0185900D01*
X0246283Y0185964D01*
X0246123Y0186033D01*
X0245964Y0186106D01*
X0245808Y0186182D01*
X0245653Y0186262D01*
X0245500Y0186346D01*
X0245350Y0186434D01*
X0245202Y0186526D01*
X0245055Y0186621D01*
X0244912Y0186719D01*
X0244771Y0186821D01*
X0244632Y0186927D01*
X0244496Y0187036D01*
X0244362Y0187148D01*
X0244232Y0187263D01*
X0244104Y0187382D01*
X0243980Y0187504D01*
X0243858Y0187628D01*
X0243739Y0187756D01*
X0243624Y0187886D01*
X0243512Y0188020D01*
X0243403Y0188156D01*
X0243297Y0188295D01*
X0243195Y0188436D01*
X0243097Y0188579D01*
X0243002Y0188726D01*
X0242910Y0188874D01*
X0242822Y0189024D01*
X0242738Y0189177D01*
X0242658Y0189332D01*
X0242582Y0189488D01*
X0242509Y0189647D01*
X0242440Y0189807D01*
X0242376Y0189969D01*
X0242315Y0190132D01*
X0242258Y0190297D01*
X0242206Y0190463D01*
X0242157Y0190630D01*
X0242113Y0190799D01*
X0242073Y0190968D01*
X0242036Y0191139D01*
X0242005Y0191310D01*
X0241977Y0191482D01*
X0241953Y0191655D01*
X0241934Y0191828D01*
X0241919Y0192002D01*
X0241909Y0192176D01*
X0241902Y0192350D01*
X0241900Y0192524D01*
X0241229Y0203824D02*
X0239761Y0203824D01*
X0239027Y0204558D01*
X0241963Y0207493D01*
X0241963Y0204558D01*
X0241229Y0203824D01*
X0239027Y0204558D02*
X0239027Y0207493D01*
X0239761Y0208227D01*
X0241229Y0208227D01*
X0241963Y0207493D01*
X0243631Y0208227D02*
X0243631Y0206025D01*
X0245099Y0206759D01*
X0245833Y0206759D01*
X0246567Y0206025D01*
X0246567Y0204558D01*
X0245833Y0203824D01*
X0244365Y0203824D01*
X0243631Y0204558D01*
X0243631Y0208227D02*
X0246567Y0208227D01*
X0237359Y0206025D02*
X0234424Y0206025D01*
X0232755Y0206025D02*
X0229820Y0206025D01*
X0229820Y0203824D02*
X0229820Y0208227D01*
X0228152Y0207493D02*
X0225216Y0204558D01*
X0225950Y0203824D01*
X0227418Y0203824D01*
X0228152Y0204558D01*
X0228152Y0207493D01*
X0227418Y0208227D01*
X0225950Y0208227D01*
X0225216Y0207493D01*
X0225216Y0204558D01*
X0223548Y0206025D02*
X0220612Y0206025D01*
X0222814Y0208227D01*
X0222814Y0203824D01*
X0218944Y0204558D02*
X0218210Y0203824D01*
X0216742Y0203824D01*
X0216008Y0204558D01*
X0214340Y0203824D02*
X0214340Y0208227D01*
X0212872Y0206759D01*
X0211404Y0208227D01*
X0211404Y0203824D01*
X0209736Y0203824D02*
X0206800Y0203824D01*
X0206800Y0208227D01*
X0216008Y0207493D02*
X0216742Y0208227D01*
X0218210Y0208227D01*
X0218944Y0207493D01*
X0218944Y0206759D01*
X0218210Y0206025D01*
X0218944Y0205292D01*
X0218944Y0204558D01*
X0218210Y0206025D02*
X0217476Y0206025D01*
X0232755Y0208227D02*
X0232755Y0203824D01*
X0249000Y0222024D02*
X0249000Y0225524D01*
X0255000Y0225524D01*
X0255000Y0222024D01*
X0262500Y0222024D01*
X0262500Y0263024D01*
X0255000Y0263024D01*
X0255000Y0259524D01*
X0249000Y0259524D01*
X0249000Y0263024D01*
X0200000Y0263024D01*
X0200000Y0222024D01*
X0249000Y0222024D01*
X0227080Y0238824D02*
X0227080Y0243227D01*
X0225612Y0243227D02*
X0228548Y0243227D01*
X0223944Y0243227D02*
X0223944Y0242493D01*
X0221008Y0239558D01*
X0221008Y0238824D01*
X0219340Y0238824D02*
X0216404Y0238824D01*
X0217872Y0238824D02*
X0217872Y0243227D01*
X0216404Y0241759D01*
X0214736Y0241759D02*
X0214736Y0242493D01*
X0214002Y0243227D01*
X0212534Y0243227D01*
X0211800Y0242493D01*
X0213268Y0241025D02*
X0214002Y0241025D01*
X0214736Y0240292D01*
X0214736Y0239558D01*
X0214002Y0238824D01*
X0212534Y0238824D01*
X0211800Y0239558D01*
X0214002Y0241025D02*
X0214736Y0241759D01*
X0221008Y0243227D02*
X0223944Y0243227D01*
X0213278Y0252824D02*
X0214746Y0254292D01*
X0214746Y0257227D01*
X0211810Y0257227D02*
X0211810Y0254292D01*
X0213278Y0252824D01*
X0210142Y0253558D02*
X0209408Y0252824D01*
X0207940Y0252824D01*
X0207206Y0253558D01*
X0205638Y0253558D02*
X0205638Y0252824D01*
X0204904Y0252824D01*
X0204904Y0253558D01*
X0205638Y0253558D01*
X0203236Y0253558D02*
X0202502Y0252824D01*
X0201034Y0252824D01*
X0200300Y0253558D01*
X0201768Y0255025D02*
X0202502Y0255025D01*
X0203236Y0254292D01*
X0203236Y0253558D01*
X0202502Y0255025D02*
X0203236Y0255759D01*
X0203236Y0256493D01*
X0202502Y0257227D01*
X0201034Y0257227D01*
X0200300Y0256493D01*
X0207206Y0256493D02*
X0207940Y0257227D01*
X0209408Y0257227D01*
X0210142Y0256493D01*
X0210142Y0255759D01*
X0209408Y0255025D01*
X0210142Y0254292D01*
X0210142Y0253558D01*
X0209408Y0255025D02*
X0208674Y0255025D01*
X0230572Y0271324D02*
X0230572Y0275727D01*
X0230572Y0273525D02*
X0233508Y0273525D01*
X0233508Y0271324D02*
X0233508Y0275727D01*
X0235176Y0274993D02*
X0235910Y0275727D01*
X0237378Y0275727D01*
X0238112Y0274993D01*
X0238112Y0272058D02*
X0237378Y0271324D01*
X0235910Y0271324D01*
X0235176Y0272058D01*
X0235176Y0274993D01*
X0227840Y0279292D02*
X0227840Y0282227D01*
X0227840Y0279292D02*
X0226372Y0277824D01*
X0224904Y0279292D01*
X0224904Y0282227D01*
X0223236Y0282227D02*
X0220300Y0282227D01*
X0220300Y0280025D01*
X0221768Y0280759D01*
X0222502Y0280759D01*
X0223236Y0280025D01*
X0223236Y0278558D01*
X0222502Y0277824D01*
X0221034Y0277824D01*
X0220300Y0278558D01*
X0230000Y0285024D02*
X0230000Y0290024D01*
X0232500Y0292524D01*
X0237500Y0292524D01*
X0240000Y0290024D01*
X0242500Y0292524D01*
X0247500Y0292524D01*
X0250000Y0290024D01*
X0252500Y0292524D01*
X0257500Y0292524D01*
X0260000Y0290024D01*
X0262500Y0292524D01*
X0267500Y0292524D01*
X0270000Y0290024D01*
X0270000Y0285024D01*
X0267500Y0282524D01*
X0262500Y0282524D01*
X0260000Y0285024D01*
X0257500Y0282524D01*
X0252500Y0282524D01*
X0250000Y0285024D01*
X0247500Y0282524D01*
X0242500Y0282524D01*
X0240000Y0285024D01*
X0237500Y0282524D01*
X0232500Y0282524D01*
X0230000Y0285024D01*
X0244384Y0274993D02*
X0245118Y0275727D01*
X0246586Y0275727D01*
X0247320Y0274993D01*
X0246586Y0273525D02*
X0247320Y0272792D01*
X0247320Y0272058D01*
X0246586Y0271324D01*
X0245118Y0271324D01*
X0244384Y0272058D01*
X0245118Y0273525D02*
X0246586Y0273525D01*
X0245118Y0273525D02*
X0244384Y0274259D01*
X0244384Y0274993D01*
X0248988Y0275727D02*
X0248988Y0271324D01*
X0248988Y0272792D02*
X0251190Y0272792D01*
X0251924Y0273525D01*
X0251924Y0274993D01*
X0251190Y0275727D01*
X0248988Y0275727D01*
X0250456Y0272792D02*
X0251924Y0271324D01*
X0253592Y0272058D02*
X0256528Y0274993D01*
X0256528Y0272058D01*
X0255794Y0271324D01*
X0254326Y0271324D01*
X0253592Y0272058D01*
X0253592Y0274993D01*
X0254326Y0275727D01*
X0255794Y0275727D01*
X0256528Y0274993D01*
X0258196Y0273525D02*
X0261132Y0273525D01*
X0260398Y0271324D02*
X0260398Y0275727D01*
X0258196Y0273525D01*
X0270300Y0278558D02*
X0270300Y0281493D01*
X0271034Y0282227D01*
X0272502Y0282227D01*
X0273236Y0281493D01*
X0273236Y0280025D02*
X0271768Y0280025D01*
X0273236Y0280025D02*
X0273236Y0278558D01*
X0272502Y0277824D01*
X0271034Y0277824D01*
X0270300Y0278558D01*
X0274904Y0277824D02*
X0274904Y0282227D01*
X0277840Y0277824D01*
X0277840Y0282227D01*
X0279508Y0282227D02*
X0281710Y0282227D01*
X0282444Y0281493D01*
X0282444Y0278558D01*
X0281710Y0277824D01*
X0279508Y0277824D01*
X0279508Y0282227D01*
X0241900Y0242524D02*
X0241902Y0242698D01*
X0241909Y0242872D01*
X0241919Y0243046D01*
X0241934Y0243220D01*
X0241953Y0243393D01*
X0241977Y0243566D01*
X0242005Y0243738D01*
X0242036Y0243909D01*
X0242073Y0244080D01*
X0242113Y0244249D01*
X0242157Y0244418D01*
X0242206Y0244585D01*
X0242258Y0244751D01*
X0242315Y0244916D01*
X0242376Y0245079D01*
X0242440Y0245241D01*
X0242509Y0245401D01*
X0242582Y0245560D01*
X0242658Y0245716D01*
X0242738Y0245871D01*
X0242822Y0246024D01*
X0242910Y0246174D01*
X0243002Y0246322D01*
X0243097Y0246469D01*
X0243195Y0246612D01*
X0243297Y0246753D01*
X0243403Y0246892D01*
X0243512Y0247028D01*
X0243624Y0247162D01*
X0243739Y0247292D01*
X0243858Y0247420D01*
X0243980Y0247544D01*
X0244104Y0247666D01*
X0244232Y0247785D01*
X0244362Y0247900D01*
X0244496Y0248012D01*
X0244632Y0248121D01*
X0244771Y0248227D01*
X0244912Y0248329D01*
X0245055Y0248427D01*
X0245202Y0248522D01*
X0245350Y0248614D01*
X0245500Y0248702D01*
X0245653Y0248786D01*
X0245808Y0248866D01*
X0245964Y0248942D01*
X0246123Y0249015D01*
X0246283Y0249084D01*
X0246445Y0249148D01*
X0246608Y0249209D01*
X0246773Y0249266D01*
X0246939Y0249318D01*
X0247106Y0249367D01*
X0247275Y0249411D01*
X0247444Y0249451D01*
X0247615Y0249488D01*
X0247786Y0249519D01*
X0247958Y0249547D01*
X0248131Y0249571D01*
X0248304Y0249590D01*
X0248478Y0249605D01*
X0248652Y0249615D01*
X0248826Y0249622D01*
X0249000Y0249624D01*
X0249174Y0249622D01*
X0249348Y0249615D01*
X0249522Y0249605D01*
X0249696Y0249590D01*
X0249869Y0249571D01*
X0250042Y0249547D01*
X0250214Y0249519D01*
X0250385Y0249488D01*
X0250556Y0249451D01*
X0250725Y0249411D01*
X0250894Y0249367D01*
X0251061Y0249318D01*
X0251227Y0249266D01*
X0251392Y0249209D01*
X0251555Y0249148D01*
X0251717Y0249084D01*
X0251877Y0249015D01*
X0252036Y0248942D01*
X0252192Y0248866D01*
X0252347Y0248786D01*
X0252500Y0248702D01*
X0252650Y0248614D01*
X0252798Y0248522D01*
X0252945Y0248427D01*
X0253088Y0248329D01*
X0253229Y0248227D01*
X0253368Y0248121D01*
X0253504Y0248012D01*
X0253638Y0247900D01*
X0253768Y0247785D01*
X0253896Y0247666D01*
X0254020Y0247544D01*
X0254142Y0247420D01*
X0254261Y0247292D01*
X0254376Y0247162D01*
X0254488Y0247028D01*
X0254597Y0246892D01*
X0254703Y0246753D01*
X0254805Y0246612D01*
X0254903Y0246469D01*
X0254998Y0246322D01*
X0255090Y0246174D01*
X0255178Y0246024D01*
X0255262Y0245871D01*
X0255342Y0245716D01*
X0255418Y0245560D01*
X0255491Y0245401D01*
X0255560Y0245241D01*
X0255624Y0245079D01*
X0255685Y0244916D01*
X0255742Y0244751D01*
X0255794Y0244585D01*
X0255843Y0244418D01*
X0255887Y0244249D01*
X0255927Y0244080D01*
X0255964Y0243909D01*
X0255995Y0243738D01*
X0256023Y0243566D01*
X0256047Y0243393D01*
X0256066Y0243220D01*
X0256081Y0243046D01*
X0256091Y0242872D01*
X0256098Y0242698D01*
X0256100Y0242524D01*
X0256098Y0242350D01*
X0256091Y0242176D01*
X0256081Y0242002D01*
X0256066Y0241828D01*
X0256047Y0241655D01*
X0256023Y0241482D01*
X0255995Y0241310D01*
X0255964Y0241139D01*
X0255927Y0240968D01*
X0255887Y0240799D01*
X0255843Y0240630D01*
X0255794Y0240463D01*
X0255742Y0240297D01*
X0255685Y0240132D01*
X0255624Y0239969D01*
X0255560Y0239807D01*
X0255491Y0239647D01*
X0255418Y0239488D01*
X0255342Y0239332D01*
X0255262Y0239177D01*
X0255178Y0239024D01*
X0255090Y0238874D01*
X0254998Y0238726D01*
X0254903Y0238579D01*
X0254805Y0238436D01*
X0254703Y0238295D01*
X0254597Y0238156D01*
X0254488Y0238020D01*
X0254376Y0237886D01*
X0254261Y0237756D01*
X0254142Y0237628D01*
X0254020Y0237504D01*
X0253896Y0237382D01*
X0253768Y0237263D01*
X0253638Y0237148D01*
X0253504Y0237036D01*
X0253368Y0236927D01*
X0253229Y0236821D01*
X0253088Y0236719D01*
X0252945Y0236621D01*
X0252798Y0236526D01*
X0252650Y0236434D01*
X0252500Y0236346D01*
X0252347Y0236262D01*
X0252192Y0236182D01*
X0252036Y0236106D01*
X0251877Y0236033D01*
X0251717Y0235964D01*
X0251555Y0235900D01*
X0251392Y0235839D01*
X0251227Y0235782D01*
X0251061Y0235730D01*
X0250894Y0235681D01*
X0250725Y0235637D01*
X0250556Y0235597D01*
X0250385Y0235560D01*
X0250214Y0235529D01*
X0250042Y0235501D01*
X0249869Y0235477D01*
X0249696Y0235458D01*
X0249522Y0235443D01*
X0249348Y0235433D01*
X0249174Y0235426D01*
X0249000Y0235424D01*
X0248826Y0235426D01*
X0248652Y0235433D01*
X0248478Y0235443D01*
X0248304Y0235458D01*
X0248131Y0235477D01*
X0247958Y0235501D01*
X0247786Y0235529D01*
X0247615Y0235560D01*
X0247444Y0235597D01*
X0247275Y0235637D01*
X0247106Y0235681D01*
X0246939Y0235730D01*
X0246773Y0235782D01*
X0246608Y0235839D01*
X0246445Y0235900D01*
X0246283Y0235964D01*
X0246123Y0236033D01*
X0245964Y0236106D01*
X0245808Y0236182D01*
X0245653Y0236262D01*
X0245500Y0236346D01*
X0245350Y0236434D01*
X0245202Y0236526D01*
X0245055Y0236621D01*
X0244912Y0236719D01*
X0244771Y0236821D01*
X0244632Y0236927D01*
X0244496Y0237036D01*
X0244362Y0237148D01*
X0244232Y0237263D01*
X0244104Y0237382D01*
X0243980Y0237504D01*
X0243858Y0237628D01*
X0243739Y0237756D01*
X0243624Y0237886D01*
X0243512Y0238020D01*
X0243403Y0238156D01*
X0243297Y0238295D01*
X0243195Y0238436D01*
X0243097Y0238579D01*
X0243002Y0238726D01*
X0242910Y0238874D01*
X0242822Y0239024D01*
X0242738Y0239177D01*
X0242658Y0239332D01*
X0242582Y0239488D01*
X0242509Y0239647D01*
X0242440Y0239807D01*
X0242376Y0239969D01*
X0242315Y0240132D01*
X0242258Y0240297D01*
X0242206Y0240463D01*
X0242157Y0240630D01*
X0242113Y0240799D01*
X0242073Y0240968D01*
X0242036Y0241139D01*
X0242005Y0241310D01*
X0241977Y0241482D01*
X0241953Y0241655D01*
X0241934Y0241828D01*
X0241919Y0242002D01*
X0241909Y0242176D01*
X0241902Y0242350D01*
X0241900Y0242524D01*
X0163200Y0239655D02*
X0160998Y0239655D01*
X0160264Y0238922D01*
X0160998Y0238188D01*
X0163200Y0238188D01*
X0163200Y0236720D02*
X0160264Y0236720D01*
X0160264Y0237454D01*
X0160998Y0238188D01*
X0160998Y0235052D02*
X0163200Y0235052D01*
X0160998Y0235052D02*
X0160264Y0234318D01*
X0160264Y0232850D01*
X0160998Y0232116D01*
X0160998Y0230448D02*
X0160264Y0229714D01*
X0160264Y0228246D01*
X0160998Y0227512D01*
X0162466Y0227512D01*
X0163200Y0228246D01*
X0163200Y0229714D01*
X0162466Y0230448D01*
X0160998Y0230448D01*
X0158796Y0232116D02*
X0163200Y0232116D01*
X0162466Y0225844D02*
X0159530Y0225844D01*
X0162466Y0222908D01*
X0163200Y0223642D01*
X0163200Y0225110D01*
X0162466Y0225844D01*
X0159530Y0225844D02*
X0158796Y0225110D01*
X0158796Y0223642D01*
X0159530Y0222908D01*
X0162466Y0222908D01*
X0162466Y0221240D02*
X0159530Y0221240D01*
X0162466Y0218304D01*
X0163200Y0219038D01*
X0163200Y0220506D01*
X0162466Y0221240D01*
X0159530Y0221240D02*
X0158796Y0220506D01*
X0158796Y0219038D01*
X0159530Y0218304D01*
X0162466Y0218304D01*
X0160998Y0216636D02*
X0160998Y0213700D01*
X0158796Y0215902D01*
X0163200Y0215902D01*
X0136200Y0217259D02*
X0136200Y0214324D01*
X0133264Y0217259D01*
X0132530Y0217259D01*
X0131796Y0216525D01*
X0131796Y0215058D01*
X0132530Y0214324D01*
X0133998Y0218928D02*
X0131796Y0221129D01*
X0136200Y0221129D01*
X0133998Y0221863D02*
X0133998Y0218928D01*
X0132530Y0223531D02*
X0131796Y0224265D01*
X0131796Y0225733D01*
X0132530Y0226467D01*
X0135466Y0223531D01*
X0136200Y0224265D01*
X0136200Y0225733D01*
X0135466Y0226467D01*
X0132530Y0226467D01*
X0133998Y0228135D02*
X0133264Y0228869D01*
X0133264Y0230337D01*
X0133998Y0231071D01*
X0135466Y0231071D01*
X0136200Y0230337D01*
X0136200Y0228869D01*
X0135466Y0228135D01*
X0133998Y0228135D01*
X0133998Y0232739D02*
X0133264Y0233473D01*
X0133264Y0234941D01*
X0133998Y0235675D01*
X0136200Y0235675D01*
X0136200Y0237343D02*
X0133264Y0237343D01*
X0133264Y0238077D01*
X0133998Y0238811D01*
X0133264Y0239545D01*
X0133998Y0240279D01*
X0136200Y0240279D01*
X0136200Y0238811D02*
X0133998Y0238811D01*
X0131796Y0232739D02*
X0136200Y0232739D01*
X0135466Y0223531D02*
X0132530Y0223531D01*
X0117200Y0223086D02*
X0117200Y0220884D01*
X0116466Y0220150D01*
X0114998Y0220150D01*
X0114264Y0220884D01*
X0114264Y0223086D01*
X0114264Y0224754D02*
X0114264Y0226222D01*
X0113530Y0225488D02*
X0116466Y0225488D01*
X0117200Y0226222D01*
X0116466Y0229433D02*
X0113530Y0229433D01*
X0112796Y0230167D01*
X0112796Y0231635D01*
X0113530Y0232369D01*
X0114998Y0234037D02*
X0116466Y0234037D01*
X0117200Y0234771D01*
X0117200Y0236238D01*
X0116466Y0236972D01*
X0114998Y0236972D01*
X0114264Y0236238D01*
X0114264Y0234771D01*
X0114998Y0234037D01*
X0116466Y0232369D02*
X0117200Y0231635D01*
X0117200Y0230167D01*
X0116466Y0229433D01*
X0117200Y0238641D02*
X0114264Y0238641D01*
X0114264Y0240842D01*
X0114998Y0241576D01*
X0117200Y0241576D01*
X0117200Y0243978D02*
X0113530Y0243978D01*
X0112796Y0244712D01*
X0114264Y0246314D02*
X0114264Y0247048D01*
X0117200Y0247048D01*
X0117200Y0246314D02*
X0117200Y0247782D01*
X0117200Y0249383D02*
X0114264Y0249383D01*
X0114264Y0250851D02*
X0114264Y0251585D01*
X0114264Y0250851D02*
X0115732Y0249383D01*
X0112796Y0247048D02*
X0112062Y0247048D01*
X0114998Y0244712D02*
X0114998Y0243244D01*
X0114264Y0253220D02*
X0114264Y0253954D01*
X0114998Y0254688D01*
X0114264Y0255422D01*
X0114998Y0256155D01*
X0117200Y0256155D01*
X0117200Y0254688D02*
X0114998Y0254688D01*
X0114264Y0253220D02*
X0117200Y0253220D01*
X0117502Y0277824D02*
X0116034Y0277824D01*
X0115300Y0278558D01*
X0115300Y0280025D01*
X0117502Y0280025D01*
X0118236Y0279292D01*
X0118236Y0278558D01*
X0117502Y0277824D01*
X0119904Y0279292D02*
X0121372Y0277824D01*
X0122840Y0279292D01*
X0122840Y0282227D01*
X0119904Y0282227D02*
X0119904Y0279292D01*
X0118236Y0282227D02*
X0116768Y0281493D01*
X0115300Y0280025D01*
X0130300Y0278558D02*
X0131034Y0277824D01*
X0132502Y0277824D01*
X0133236Y0278558D01*
X0133236Y0280025D01*
X0131768Y0280025D01*
X0130300Y0278558D02*
X0130300Y0281493D01*
X0131034Y0282227D01*
X0132502Y0282227D01*
X0133236Y0281493D01*
X0134904Y0282227D02*
X0137840Y0277824D01*
X0137840Y0282227D01*
X0139508Y0282227D02*
X0141710Y0282227D01*
X0142444Y0281493D01*
X0142444Y0278558D01*
X0141710Y0277824D01*
X0139508Y0277824D01*
X0139508Y0282227D01*
X0134904Y0282227D02*
X0134904Y0277824D01*
X0115732Y0218482D02*
X0115732Y0215546D01*
X0114998Y0215546D02*
X0114264Y0216280D01*
X0114264Y0217748D01*
X0114998Y0218482D01*
X0115732Y0218482D01*
X0117200Y0217748D02*
X0117200Y0216280D01*
X0116466Y0215546D01*
X0114998Y0215546D01*
X0117200Y0213945D02*
X0117200Y0212477D01*
X0117200Y0213211D02*
X0112796Y0213211D01*
X0112796Y0212477D01*
X0114998Y0210809D02*
X0115732Y0210809D01*
X0115732Y0207873D01*
X0114998Y0207873D02*
X0114264Y0208607D01*
X0114264Y0210075D01*
X0114998Y0210809D01*
X0117200Y0210075D02*
X0117200Y0208607D01*
X0116466Y0207873D01*
X0114998Y0207873D01*
X0115732Y0206205D02*
X0116466Y0206205D01*
X0117200Y0205471D01*
X0117200Y0204003D01*
X0116466Y0203269D01*
X0114998Y0204003D02*
X0114998Y0205471D01*
X0115732Y0206205D01*
X0113530Y0206205D02*
X0112796Y0205471D01*
X0112796Y0204003D01*
X0113530Y0203269D01*
X0114264Y0203269D01*
X0114998Y0204003D01*
X0114264Y0201189D02*
X0114264Y0200455D01*
X0115732Y0198987D01*
X0117200Y0198987D02*
X0114264Y0198987D01*
X0114998Y0197319D02*
X0115732Y0197319D01*
X0115732Y0194383D01*
X0114998Y0194383D02*
X0114264Y0195117D01*
X0114264Y0196585D01*
X0114998Y0197319D01*
X0117200Y0196585D02*
X0117200Y0195117D01*
X0116466Y0194383D01*
X0114998Y0194383D01*
X0114998Y0192715D02*
X0116466Y0192715D01*
X0117200Y0191981D01*
X0117200Y0189779D01*
X0118668Y0189779D02*
X0114264Y0189779D01*
X0114264Y0191981D01*
X0114998Y0192715D01*
X0114998Y0188111D02*
X0117200Y0188111D01*
X0117200Y0186643D02*
X0114998Y0186643D01*
X0114264Y0187377D01*
X0114998Y0188111D01*
X0114998Y0186643D02*
X0114264Y0185909D01*
X0114264Y0185175D01*
X0117200Y0185175D01*
X0117200Y0183507D02*
X0114264Y0183507D01*
X0114264Y0180571D02*
X0116466Y0180571D01*
X0117200Y0181305D01*
X0117200Y0183507D01*
X0116466Y0178903D02*
X0115732Y0178903D01*
X0114998Y0178169D01*
X0114998Y0175967D01*
X0112796Y0175967D02*
X0112796Y0178169D01*
X0113530Y0178903D01*
X0114264Y0178903D01*
X0114998Y0178169D01*
X0116466Y0178903D02*
X0117200Y0178169D01*
X0117200Y0175967D01*
X0112796Y0175967D01*
X0120300Y0170025D02*
X0122502Y0170025D01*
X0123236Y0169292D01*
X0123236Y0168558D01*
X0122502Y0167824D01*
X0121034Y0167824D01*
X0120300Y0168558D01*
X0120300Y0170025D01*
X0121768Y0171493D01*
X0123236Y0172227D01*
X0124904Y0172227D02*
X0124904Y0169292D01*
X0126372Y0167824D01*
X0127840Y0169292D01*
X0127840Y0172227D01*
X0134296Y0169480D02*
X0138700Y0169480D01*
X0138700Y0168012D02*
X0138700Y0170948D01*
X0137966Y0172616D02*
X0138700Y0173350D01*
X0138700Y0175552D01*
X0135764Y0175552D01*
X0136498Y0177220D02*
X0136498Y0178688D01*
X0134296Y0177220D02*
X0134296Y0180156D01*
X0134296Y0177220D02*
X0138700Y0177220D01*
X0137966Y0172616D02*
X0135764Y0172616D01*
X0134296Y0169480D02*
X0135764Y0168012D01*
X0130000Y0160024D02*
X0127500Y0162524D01*
X0122500Y0162524D01*
X0120000Y0160024D01*
X0120000Y0155024D01*
X0122500Y0152524D01*
X0120000Y0150024D01*
X0120000Y0145024D01*
X0122500Y0142524D01*
X0120000Y0140024D01*
X0120000Y0135024D01*
X0122500Y0132524D01*
X0127500Y0132524D01*
X0130000Y0135024D01*
X0130000Y0140024D01*
X0127500Y0142524D01*
X0122500Y0142524D01*
X0127500Y0142524D02*
X0130000Y0145024D01*
X0130000Y0150024D01*
X0127500Y0152524D01*
X0122500Y0152524D01*
X0127500Y0152524D02*
X0130000Y0155024D01*
X0130000Y0160024D01*
X0131296Y0160967D02*
X0131296Y0158031D01*
X0135700Y0158031D01*
X0135700Y0156363D02*
X0132764Y0156363D01*
X0133498Y0158031D02*
X0133498Y0159499D01*
X0135700Y0156363D02*
X0135700Y0154162D01*
X0134966Y0153428D01*
X0132764Y0153428D01*
X0135700Y0151759D02*
X0135700Y0148824D01*
X0135700Y0150292D02*
X0131296Y0150292D01*
X0132764Y0148824D01*
X0117200Y0147773D02*
X0117200Y0146305D01*
X0116466Y0145571D01*
X0114998Y0146305D02*
X0114998Y0147773D01*
X0115732Y0148507D01*
X0116466Y0148507D01*
X0117200Y0147773D01*
X0116466Y0150175D02*
X0114998Y0150175D01*
X0114264Y0150909D01*
X0114264Y0152377D01*
X0114998Y0153111D01*
X0115732Y0153111D01*
X0115732Y0150175D01*
X0116466Y0150175D02*
X0117200Y0150909D01*
X0117200Y0152377D01*
X0117200Y0154779D02*
X0114264Y0154779D01*
X0115732Y0154779D02*
X0114264Y0156247D01*
X0114264Y0156981D01*
X0114264Y0158616D02*
X0117200Y0160084D01*
X0114264Y0161552D01*
X0114998Y0163220D02*
X0116466Y0163220D01*
X0117200Y0163954D01*
X0117200Y0165421D01*
X0116466Y0166155D01*
X0114998Y0166155D01*
X0114264Y0165421D01*
X0114264Y0163954D01*
X0114998Y0163220D01*
X0113530Y0148507D02*
X0112796Y0147773D01*
X0112796Y0146305D01*
X0113530Y0145571D01*
X0114264Y0145571D01*
X0114998Y0146305D01*
X0114264Y0139366D02*
X0114264Y0137898D01*
X0113530Y0138632D02*
X0116466Y0138632D01*
X0117200Y0139366D01*
X0117200Y0136230D02*
X0114998Y0136230D01*
X0114264Y0135496D01*
X0114264Y0134028D01*
X0114998Y0133294D01*
X0114264Y0131626D02*
X0114264Y0129424D01*
X0114998Y0128690D01*
X0116466Y0128690D01*
X0117200Y0129424D01*
X0117200Y0131626D01*
X0117934Y0131626D02*
X0114264Y0131626D01*
X0112796Y0133294D02*
X0117200Y0133294D01*
X0117934Y0131626D02*
X0118668Y0130892D01*
X0118668Y0130158D01*
X0120300Y0131493D02*
X0120300Y0128558D01*
X0121034Y0127824D01*
X0122502Y0127824D01*
X0123236Y0128558D01*
X0123236Y0130025D01*
X0121768Y0130025D01*
X0123236Y0131493D02*
X0122502Y0132227D01*
X0121034Y0132227D01*
X0120300Y0131493D01*
X0124904Y0132227D02*
X0124904Y0127824D01*
X0127840Y0127824D02*
X0127840Y0132227D01*
X0129508Y0132227D02*
X0131710Y0132227D01*
X0132444Y0131493D01*
X0132444Y0128558D01*
X0131710Y0127824D01*
X0129508Y0127824D01*
X0129508Y0132227D01*
X0124904Y0132227D02*
X0127840Y0127824D01*
X0117200Y0127089D02*
X0117200Y0125621D01*
X0117200Y0126355D02*
X0114264Y0126355D01*
X0114264Y0125621D01*
X0112796Y0126355D02*
X0112062Y0126355D01*
X0113530Y0123953D02*
X0114998Y0123953D01*
X0115732Y0123219D01*
X0115732Y0121017D01*
X0115732Y0122485D02*
X0117200Y0123953D01*
X0117200Y0121017D02*
X0112796Y0121017D01*
X0112796Y0123219D01*
X0113530Y0123953D01*
X0151296Y0150292D02*
X0155700Y0150292D01*
X0155700Y0151759D02*
X0155700Y0148824D01*
X0152764Y0148824D02*
X0151296Y0150292D01*
X0152764Y0153428D02*
X0154966Y0153428D01*
X0155700Y0154162D01*
X0155700Y0156363D01*
X0152764Y0156363D01*
X0153498Y0158031D02*
X0153498Y0159499D01*
X0151296Y0158031D02*
X0151296Y0160967D01*
X0151296Y0158031D02*
X0155700Y0158031D01*
X0155764Y0168012D02*
X0154296Y0169480D01*
X0158700Y0169480D01*
X0158700Y0168012D02*
X0158700Y0170948D01*
X0157966Y0172616D02*
X0158700Y0173350D01*
X0158700Y0175552D01*
X0155764Y0175552D01*
X0156498Y0177220D02*
X0156498Y0178688D01*
X0154296Y0177220D02*
X0154296Y0180156D01*
X0154296Y0177220D02*
X0158700Y0177220D01*
X0157966Y0172616D02*
X0155764Y0172616D01*
X0200300Y0178558D02*
X0201034Y0177824D01*
X0202502Y0177824D01*
X0203236Y0178558D01*
X0203236Y0180025D01*
X0202502Y0180759D01*
X0201768Y0180759D01*
X0200300Y0180025D01*
X0200300Y0182227D01*
X0203236Y0182227D01*
X0204904Y0182227D02*
X0204904Y0179292D01*
X0206372Y0177824D01*
X0207840Y0179292D01*
X0207840Y0182227D01*
D11*
X0167500Y0177524D02*
X0162500Y0177524D01*
X0147500Y0177524D02*
X0142500Y0177524D01*
X0130000Y0185024D02*
X0127500Y0182524D01*
X0122500Y0182524D01*
X0120000Y0185024D01*
X0120000Y0190024D01*
X0122500Y0192524D01*
X0120000Y0195024D01*
X0120000Y0200024D01*
X0122500Y0202524D01*
X0127500Y0202524D01*
X0130000Y0200024D01*
X0130000Y0195024D01*
X0127500Y0192524D01*
X0130000Y0190024D01*
X0130000Y0185024D01*
X0127500Y0207524D02*
X0122500Y0207524D01*
X0120000Y0210024D01*
X0120000Y0215024D01*
X0122500Y0217524D01*
X0120000Y0220024D01*
X0120000Y0225024D01*
X0122500Y0227524D01*
X0127500Y0227524D01*
X0130000Y0225024D01*
X0130000Y0220024D01*
X0127500Y0217524D01*
X0130000Y0215024D01*
X0130000Y0210024D01*
X0127500Y0207524D01*
X0138504Y0209807D02*
X0138504Y0245240D01*
X0151496Y0245240D01*
X0151496Y0209807D01*
X0138504Y0209807D01*
X0163504Y0209807D02*
X0163504Y0245240D01*
X0176496Y0245240D01*
X0176496Y0209807D01*
X0163504Y0209807D01*
X0130000Y0235024D02*
X0127500Y0232524D01*
X0122500Y0232524D01*
X0120000Y0235024D01*
X0120000Y0240024D01*
X0122500Y0242524D01*
X0120000Y0245024D01*
X0120000Y0250024D01*
X0122500Y0252524D01*
X0127500Y0252524D01*
X0130000Y0250024D01*
X0130000Y0245024D01*
X0127500Y0242524D01*
X0130000Y0240024D01*
X0130000Y0235024D01*
X0142500Y0152524D02*
X0147500Y0152524D01*
X0162500Y0152524D02*
X0167500Y0152524D01*
D12*
X0180000Y0153024D03*
X0195000Y0142024D03*
D13*
X0195000Y0135774D03*
X0180000Y0135774D03*
X0180000Y0159274D03*
X0195000Y0159274D03*
D14*
X0202500Y0174524D02*
X0235000Y0174524D01*
X0235000Y0210524D01*
X0202500Y0210524D01*
X0202500Y0174524D01*
X0202500Y0224524D02*
X0235000Y0224524D01*
X0235000Y0260524D01*
X0202500Y0260524D01*
X0202500Y0224524D01*
D15*
X0187750Y0232524D03*
X0187750Y0242524D03*
X0187750Y0252524D03*
X0187750Y0202524D03*
X0187750Y0192524D03*
X0187750Y0182524D03*
D16*
X0194500Y0182524D03*
X0194500Y0192524D03*
X0194500Y0202524D03*
X0194500Y0232524D03*
X0194500Y0242524D03*
X0194500Y0252524D03*
D17*
X0226898Y0285274D02*
X0226898Y0289777D01*
X0224646Y0287526D01*
X0227649Y0287526D01*
X0270146Y0288276D02*
X0271647Y0289777D01*
X0271647Y0285274D01*
X0270146Y0285274D02*
X0273149Y0285274D01*
X0144173Y0285909D02*
X0144173Y0263862D01*
X0116614Y0263862D01*
X0116614Y0258350D01*
X0144173Y0258350D01*
X0144173Y0263862D01*
X0116614Y0263862D02*
X0116614Y0285909D01*
X0144173Y0285909D01*
X0221250Y0166274D02*
X0221250Y0128774D01*
X0258750Y0128774D01*
X0258750Y0166274D01*
X0221250Y0166274D01*
X0227000Y0147524D02*
X0227004Y0147843D01*
X0227016Y0148162D01*
X0227035Y0148480D01*
X0227063Y0148798D01*
X0227098Y0149115D01*
X0227141Y0149431D01*
X0227191Y0149747D01*
X0227250Y0150060D01*
X0227316Y0150372D01*
X0227390Y0150683D01*
X0227471Y0150991D01*
X0227560Y0151298D01*
X0227656Y0151602D01*
X0227760Y0151904D01*
X0227871Y0152203D01*
X0227990Y0152499D01*
X0228115Y0152792D01*
X0228248Y0153082D01*
X0228388Y0153369D01*
X0228535Y0153652D01*
X0228689Y0153932D01*
X0228850Y0154207D01*
X0229017Y0154479D01*
X0229191Y0154746D01*
X0229371Y0155010D01*
X0229558Y0155268D01*
X0229751Y0155522D01*
X0229951Y0155771D01*
X0230156Y0156015D01*
X0230368Y0156254D01*
X0230585Y0156488D01*
X0230808Y0156716D01*
X0231036Y0156939D01*
X0231270Y0157156D01*
X0231509Y0157368D01*
X0231753Y0157573D01*
X0232002Y0157773D01*
X0232256Y0157966D01*
X0232514Y0158153D01*
X0232778Y0158333D01*
X0233045Y0158507D01*
X0233317Y0158674D01*
X0233592Y0158835D01*
X0233872Y0158989D01*
X0234155Y0159136D01*
X0234442Y0159276D01*
X0234732Y0159409D01*
X0235025Y0159534D01*
X0235321Y0159653D01*
X0235620Y0159764D01*
X0235922Y0159868D01*
X0236226Y0159964D01*
X0236533Y0160053D01*
X0236841Y0160134D01*
X0237152Y0160208D01*
X0237464Y0160274D01*
X0237777Y0160333D01*
X0238093Y0160383D01*
X0238409Y0160426D01*
X0238726Y0160461D01*
X0239044Y0160489D01*
X0239362Y0160508D01*
X0239681Y0160520D01*
X0240000Y0160524D01*
X0240319Y0160520D01*
X0240638Y0160508D01*
X0240956Y0160489D01*
X0241274Y0160461D01*
X0241591Y0160426D01*
X0241907Y0160383D01*
X0242223Y0160333D01*
X0242536Y0160274D01*
X0242848Y0160208D01*
X0243159Y0160134D01*
X0243467Y0160053D01*
X0243774Y0159964D01*
X0244078Y0159868D01*
X0244380Y0159764D01*
X0244679Y0159653D01*
X0244975Y0159534D01*
X0245268Y0159409D01*
X0245558Y0159276D01*
X0245845Y0159136D01*
X0246128Y0158989D01*
X0246408Y0158835D01*
X0246683Y0158674D01*
X0246955Y0158507D01*
X0247222Y0158333D01*
X0247486Y0158153D01*
X0247744Y0157966D01*
X0247998Y0157773D01*
X0248247Y0157573D01*
X0248491Y0157368D01*
X0248730Y0157156D01*
X0248964Y0156939D01*
X0249192Y0156716D01*
X0249415Y0156488D01*
X0249632Y0156254D01*
X0249844Y0156015D01*
X0250049Y0155771D01*
X0250249Y0155522D01*
X0250442Y0155268D01*
X0250629Y0155010D01*
X0250809Y0154746D01*
X0250983Y0154479D01*
X0251150Y0154207D01*
X0251311Y0153932D01*
X0251465Y0153652D01*
X0251612Y0153369D01*
X0251752Y0153082D01*
X0251885Y0152792D01*
X0252010Y0152499D01*
X0252129Y0152203D01*
X0252240Y0151904D01*
X0252344Y0151602D01*
X0252440Y0151298D01*
X0252529Y0150991D01*
X0252610Y0150683D01*
X0252684Y0150372D01*
X0252750Y0150060D01*
X0252809Y0149747D01*
X0252859Y0149431D01*
X0252902Y0149115D01*
X0252937Y0148798D01*
X0252965Y0148480D01*
X0252984Y0148162D01*
X0252996Y0147843D01*
X0253000Y0147524D01*
X0252996Y0147205D01*
X0252984Y0146886D01*
X0252965Y0146568D01*
X0252937Y0146250D01*
X0252902Y0145933D01*
X0252859Y0145617D01*
X0252809Y0145301D01*
X0252750Y0144988D01*
X0252684Y0144676D01*
X0252610Y0144365D01*
X0252529Y0144057D01*
X0252440Y0143750D01*
X0252344Y0143446D01*
X0252240Y0143144D01*
X0252129Y0142845D01*
X0252010Y0142549D01*
X0251885Y0142256D01*
X0251752Y0141966D01*
X0251612Y0141679D01*
X0251465Y0141396D01*
X0251311Y0141116D01*
X0251150Y0140841D01*
X0250983Y0140569D01*
X0250809Y0140302D01*
X0250629Y0140038D01*
X0250442Y0139780D01*
X0250249Y0139526D01*
X0250049Y0139277D01*
X0249844Y0139033D01*
X0249632Y0138794D01*
X0249415Y0138560D01*
X0249192Y0138332D01*
X0248964Y0138109D01*
X0248730Y0137892D01*
X0248491Y0137680D01*
X0248247Y0137475D01*
X0247998Y0137275D01*
X0247744Y0137082D01*
X0247486Y0136895D01*
X0247222Y0136715D01*
X0246955Y0136541D01*
X0246683Y0136374D01*
X0246408Y0136213D01*
X0246128Y0136059D01*
X0245845Y0135912D01*
X0245558Y0135772D01*
X0245268Y0135639D01*
X0244975Y0135514D01*
X0244679Y0135395D01*
X0244380Y0135284D01*
X0244078Y0135180D01*
X0243774Y0135084D01*
X0243467Y0134995D01*
X0243159Y0134914D01*
X0242848Y0134840D01*
X0242536Y0134774D01*
X0242223Y0134715D01*
X0241907Y0134665D01*
X0241591Y0134622D01*
X0241274Y0134587D01*
X0240956Y0134559D01*
X0240638Y0134540D01*
X0240319Y0134528D01*
X0240000Y0134524D01*
X0239681Y0134528D01*
X0239362Y0134540D01*
X0239044Y0134559D01*
X0238726Y0134587D01*
X0238409Y0134622D01*
X0238093Y0134665D01*
X0237777Y0134715D01*
X0237464Y0134774D01*
X0237152Y0134840D01*
X0236841Y0134914D01*
X0236533Y0134995D01*
X0236226Y0135084D01*
X0235922Y0135180D01*
X0235620Y0135284D01*
X0235321Y0135395D01*
X0235025Y0135514D01*
X0234732Y0135639D01*
X0234442Y0135772D01*
X0234155Y0135912D01*
X0233872Y0136059D01*
X0233592Y0136213D01*
X0233317Y0136374D01*
X0233045Y0136541D01*
X0232778Y0136715D01*
X0232514Y0136895D01*
X0232256Y0137082D01*
X0232002Y0137275D01*
X0231753Y0137475D01*
X0231509Y0137680D01*
X0231270Y0137892D01*
X0231036Y0138109D01*
X0230808Y0138332D01*
X0230585Y0138560D01*
X0230368Y0138794D01*
X0230156Y0139033D01*
X0229951Y0139277D01*
X0229751Y0139526D01*
X0229558Y0139780D01*
X0229371Y0140038D01*
X0229191Y0140302D01*
X0229017Y0140569D01*
X0228850Y0140841D01*
X0228689Y0141116D01*
X0228535Y0141396D01*
X0228388Y0141679D01*
X0228248Y0141966D01*
X0228115Y0142256D01*
X0227990Y0142549D01*
X0227871Y0142845D01*
X0227760Y0143144D01*
X0227656Y0143446D01*
X0227560Y0143750D01*
X0227471Y0144057D01*
X0227390Y0144365D01*
X0227316Y0144676D01*
X0227250Y0144988D01*
X0227191Y0145301D01*
X0227141Y0145617D01*
X0227098Y0145933D01*
X0227063Y0146250D01*
X0227035Y0146568D01*
X0227016Y0146886D01*
X0227004Y0147205D01*
X0227000Y0147524D01*
D18*
X0203483Y0271665D02*
X0205858Y0274040D01*
X0203034Y0277504D01*
X0203539Y0278420D01*
X0203939Y0279387D01*
X0204231Y0280393D01*
X0208677Y0280844D01*
X0208677Y0284203D01*
X0204231Y0284655D01*
X0203939Y0285660D01*
X0203539Y0286627D01*
X0203034Y0287544D01*
X0205858Y0291007D01*
X0203483Y0293382D01*
X0200020Y0290558D01*
X0199103Y0291063D01*
X0198136Y0291463D01*
X0197131Y0291754D01*
X0196679Y0296200D01*
X0193321Y0296200D01*
X0192869Y0291754D01*
X0191864Y0291463D01*
X0190897Y0291063D01*
X0189980Y0290558D01*
X0186517Y0293382D01*
X0184142Y0291007D01*
X0186966Y0287544D01*
X0186461Y0286627D01*
X0186061Y0285660D01*
X0185769Y0284655D01*
X0181323Y0284203D01*
X0181323Y0280844D01*
X0185769Y0280393D01*
X0186061Y0279387D01*
X0186461Y0278420D01*
X0186966Y0277504D01*
X0184142Y0274040D01*
X0186517Y0271665D01*
X0189980Y0274489D01*
X0190662Y0274101D01*
X0191374Y0273771D01*
X0193352Y0278545D01*
X0192709Y0278877D01*
X0192130Y0279313D01*
X0191633Y0279839D01*
X0191231Y0280441D01*
X0190935Y0281101D01*
X0190755Y0281802D01*
X0190694Y0282524D01*
X0190769Y0283328D01*
X0190994Y0284103D01*
X0191359Y0284824D01*
X0191853Y0285463D01*
X0192457Y0285999D01*
X0193150Y0286412D01*
X0193909Y0286689D01*
X0194706Y0286820D01*
X0195513Y0286799D01*
X0196303Y0286628D01*
X0197046Y0286313D01*
X0197717Y0285864D01*
X0198293Y0285298D01*
X0198753Y0284634D01*
X0199081Y0283896D01*
X0199266Y0283110D01*
X0199300Y0282303D01*
X0199184Y0281504D01*
X0198920Y0280741D01*
X0198518Y0280040D01*
X0197993Y0279427D01*
X0197362Y0278923D01*
X0196648Y0278545D01*
X0198626Y0273771D01*
X0199338Y0274101D01*
X0200020Y0274489D01*
X0203483Y0271665D01*
X0204048Y0272230D02*
X0202791Y0272230D01*
X0202069Y0272819D02*
X0204637Y0272819D01*
X0205226Y0273408D02*
X0201346Y0273408D01*
X0200624Y0273997D02*
X0205815Y0273997D01*
X0205413Y0274586D02*
X0198288Y0274586D01*
X0198532Y0273997D02*
X0199113Y0273997D01*
X0198044Y0275175D02*
X0204933Y0275175D01*
X0204452Y0275764D02*
X0197800Y0275764D01*
X0197556Y0276353D02*
X0203972Y0276353D01*
X0203492Y0276942D02*
X0197312Y0276942D01*
X0197068Y0277531D02*
X0203050Y0277531D01*
X0203374Y0278120D02*
X0196824Y0278120D01*
X0196959Y0278710D02*
X0203659Y0278710D01*
X0203903Y0279299D02*
X0197832Y0279299D01*
X0198387Y0279888D02*
X0204084Y0279888D01*
X0205059Y0280477D02*
X0198768Y0280477D01*
X0199032Y0281066D02*
X0208677Y0281066D01*
X0208677Y0281655D02*
X0199206Y0281655D01*
X0199292Y0282244D02*
X0208677Y0282244D01*
X0208677Y0282833D02*
X0199278Y0282833D01*
X0199193Y0283422D02*
X0208677Y0283422D01*
X0208677Y0284011D02*
X0199030Y0284011D01*
X0198769Y0284600D02*
X0204767Y0284600D01*
X0204076Y0285189D02*
X0198369Y0285189D01*
X0197805Y0285778D02*
X0203890Y0285778D01*
X0203646Y0286367D02*
X0196917Y0286367D01*
X0193075Y0286367D02*
X0186354Y0286367D01*
X0186110Y0285778D02*
X0192208Y0285778D01*
X0191642Y0285189D02*
X0185924Y0285189D01*
X0185233Y0284600D02*
X0191246Y0284600D01*
X0190967Y0284011D02*
X0181323Y0284011D01*
X0181323Y0283422D02*
X0190797Y0283422D01*
X0190723Y0282833D02*
X0181323Y0282833D01*
X0181323Y0282244D02*
X0190717Y0282244D01*
X0190793Y0281655D02*
X0181323Y0281655D01*
X0181323Y0281066D02*
X0190951Y0281066D01*
X0191215Y0280477D02*
X0184941Y0280477D01*
X0185916Y0279888D02*
X0191600Y0279888D01*
X0192149Y0279299D02*
X0186097Y0279299D01*
X0186341Y0278710D02*
X0193034Y0278710D01*
X0193176Y0278120D02*
X0186626Y0278120D01*
X0186950Y0277531D02*
X0192932Y0277531D01*
X0192688Y0276942D02*
X0186508Y0276942D01*
X0186028Y0276353D02*
X0192444Y0276353D01*
X0192200Y0275764D02*
X0185548Y0275764D01*
X0185067Y0275175D02*
X0191956Y0275175D01*
X0191712Y0274586D02*
X0184587Y0274586D01*
X0184185Y0273997D02*
X0189376Y0273997D01*
X0188654Y0273408D02*
X0184774Y0273408D01*
X0185363Y0272819D02*
X0187931Y0272819D01*
X0187209Y0272230D02*
X0185952Y0272230D01*
X0190887Y0273997D02*
X0191468Y0273997D01*
X0186643Y0286956D02*
X0203358Y0286956D01*
X0203036Y0287545D02*
X0186964Y0287545D01*
X0186484Y0288135D02*
X0203516Y0288135D01*
X0203996Y0288724D02*
X0186004Y0288724D01*
X0185523Y0289313D02*
X0204477Y0289313D01*
X0204957Y0289902D02*
X0185043Y0289902D01*
X0184563Y0290491D02*
X0205437Y0290491D01*
X0205785Y0291080D02*
X0200660Y0291080D01*
X0201383Y0291669D02*
X0205196Y0291669D01*
X0204607Y0292258D02*
X0202105Y0292258D01*
X0202828Y0292847D02*
X0204018Y0292847D01*
X0199061Y0291080D02*
X0190939Y0291080D01*
X0189340Y0291080D02*
X0184215Y0291080D01*
X0184804Y0291669D02*
X0188617Y0291669D01*
X0187895Y0292258D02*
X0185393Y0292258D01*
X0185982Y0292847D02*
X0187172Y0292847D01*
X0192574Y0291669D02*
X0197426Y0291669D01*
X0197080Y0292258D02*
X0192920Y0292258D01*
X0192980Y0292847D02*
X0197020Y0292847D01*
X0196960Y0293436D02*
X0193040Y0293436D01*
X0193100Y0294025D02*
X0196900Y0294025D01*
X0196840Y0294614D02*
X0193160Y0294614D01*
X0193220Y0295203D02*
X0196780Y0295203D01*
X0196721Y0295792D02*
X0193279Y0295792D01*
M02*
