G75*
%MOIN*%
%OFA0B0*%
%FSLAX25Y25*%
%IPPOS*%
%LPD*%
%AMOC8*
5,1,8,0,0,1.08239X$1,22.5*
%
%ADD10C,0.06500*%
%ADD11C,0.06600*%
%ADD12C,0.08600*%
%ADD13C,0.07400*%
%ADD14C,0.06000*%
%ADD15C,0.07000*%
%ADD16C,0.04724*%
%ADD17C,0.04800*%
%ADD18C,0.01000*%
%ADD19C,0.02700*%
%ADD20C,0.02000*%
D10*
X0145000Y0197524D03*
X0145000Y0207524D03*
X0160000Y0207524D03*
X0160000Y0197524D03*
X0230000Y0232524D03*
X0230000Y0242524D03*
D11*
X0148300Y0247524D02*
X0141700Y0247524D01*
X0141700Y0237524D02*
X0148300Y0237524D01*
X0148300Y0227524D02*
X0141700Y0227524D01*
D12*
X0137087Y0272524D03*
X0123307Y0272524D03*
D13*
X0105000Y0277524D03*
X0105000Y0267524D03*
X0105000Y0257524D03*
X0105000Y0247524D03*
X0105000Y0237524D03*
X0105000Y0227524D03*
X0105000Y0217524D03*
X0105000Y0207524D03*
X0125000Y0211824D03*
X0125000Y0223224D03*
X0125000Y0236824D03*
X0125000Y0248224D03*
X0125000Y0198224D03*
X0125000Y0186824D03*
X0105000Y0182524D03*
X0105000Y0172524D03*
X0105000Y0162524D03*
X0105000Y0152524D03*
X0105000Y0142524D03*
X0105000Y0132524D03*
X0105000Y0122524D03*
X0105000Y0112524D03*
X0105000Y0102524D03*
X0125000Y0141824D03*
X0125000Y0153224D03*
X0105000Y0192524D03*
X0275000Y0183224D03*
X0275000Y0171824D03*
X0295000Y0167524D03*
X0295000Y0157524D03*
X0295000Y0147524D03*
X0295000Y0137524D03*
X0295000Y0177524D03*
X0295000Y0187524D03*
X0295000Y0197524D03*
X0295000Y0207524D03*
X0295000Y0227524D03*
X0295000Y0237524D03*
X0295000Y0247524D03*
X0295000Y0257524D03*
X0295000Y0267524D03*
X0295000Y0277524D03*
D14*
X0265000Y0284524D02*
X0265000Y0290524D01*
X0255000Y0290524D02*
X0255000Y0284524D01*
X0245000Y0284524D02*
X0245000Y0290524D01*
X0235000Y0290524D02*
X0235000Y0284524D01*
D15*
X0276250Y0152524D03*
X0276250Y0142524D03*
X0276250Y0132524D03*
D16*
X0276496Y0106618D02*
X0276496Y0101894D01*
X0286496Y0101894D02*
X0286496Y0106618D01*
X0296496Y0106618D02*
X0296496Y0101894D01*
X0266496Y0101894D02*
X0266496Y0106618D01*
X0256496Y0106618D02*
X0256496Y0101894D01*
X0246496Y0101894D02*
X0246496Y0106618D01*
X0236496Y0106618D02*
X0236496Y0101894D01*
X0226496Y0101894D02*
X0226496Y0106618D01*
X0216496Y0106618D02*
X0216496Y0101894D01*
X0206496Y0101894D02*
X0206496Y0106618D01*
X0196496Y0106618D02*
X0196496Y0101894D01*
X0186496Y0101894D02*
X0186496Y0106618D01*
X0176496Y0106618D02*
X0176496Y0101894D01*
X0166496Y0101894D02*
X0166496Y0106618D01*
X0156496Y0106618D02*
X0156496Y0101894D01*
X0146496Y0101894D02*
X0146496Y0106618D01*
D17*
X0165000Y0150124D02*
X0165000Y0154924D01*
X0175000Y0154924D02*
X0175000Y0150124D01*
X0185000Y0150124D02*
X0185000Y0154924D01*
X0195000Y0154924D02*
X0195000Y0150124D01*
X0205000Y0150124D02*
X0205000Y0154924D01*
X0215000Y0154924D02*
X0215000Y0150124D01*
X0225000Y0150124D02*
X0225000Y0154924D01*
X0235000Y0154924D02*
X0235000Y0150124D01*
X0235000Y0180124D02*
X0235000Y0184924D01*
X0225000Y0184924D02*
X0225000Y0180124D01*
X0215000Y0180124D02*
X0215000Y0184924D01*
X0205000Y0184924D02*
X0205000Y0180124D01*
X0195000Y0180124D02*
X0195000Y0184924D01*
X0185000Y0184924D02*
X0185000Y0180124D01*
X0175000Y0180124D02*
X0175000Y0184924D01*
X0165000Y0184924D02*
X0165000Y0180124D01*
D18*
X0105000Y0102524D02*
X0109500Y0098024D01*
X0158000Y0098024D01*
X0160500Y0100524D01*
X0160500Y0106524D01*
X0179000Y0125024D01*
X0179000Y0154524D01*
X0187500Y0163024D01*
X0196500Y0163024D01*
X0202000Y0168524D01*
X0209000Y0168524D01*
X0223000Y0182524D01*
X0225000Y0182524D01*
X0215000Y0182524D02*
X0213000Y0182524D01*
X0195500Y0165024D01*
X0168500Y0165024D01*
X0140000Y0136524D01*
X0122500Y0136524D01*
X0119500Y0139524D01*
X0119500Y0147524D01*
X0125000Y0153024D01*
X0125000Y0153224D01*
X0125000Y0142024D02*
X0125000Y0141824D01*
X0125000Y0142024D02*
X0142500Y0142024D01*
X0183000Y0182524D01*
X0185000Y0182524D01*
X0175000Y0182524D02*
X0173000Y0182524D01*
X0153000Y0162524D01*
X0105000Y0162524D01*
X0185000Y0152524D02*
X0187000Y0152524D01*
X0195500Y0161024D01*
X0202500Y0161024D01*
X0208000Y0166524D01*
X0255500Y0166524D01*
X0260500Y0171524D01*
X0275000Y0171524D01*
X0275000Y0171824D01*
X0277500Y0166524D02*
X0280500Y0169524D01*
X0280500Y0218024D01*
X0273000Y0225524D01*
X0273000Y0227524D01*
X0283000Y0237524D01*
X0295000Y0237524D01*
X0295000Y0227524D02*
X0300500Y0222024D01*
X0300500Y0100524D01*
X0298000Y0098024D01*
X0185000Y0098024D01*
X0179000Y0104024D01*
X0176500Y0104024D01*
X0176496Y0104256D01*
X0196496Y0104256D02*
X0196500Y0104524D01*
X0196500Y0146024D01*
X0201000Y0150524D01*
X0201000Y0156524D01*
X0209000Y0164524D01*
X0256500Y0164524D01*
X0258500Y0166524D01*
X0277500Y0166524D01*
X0266500Y0159524D02*
X0266500Y0104524D01*
X0266496Y0104256D01*
X0276000Y0104524D02*
X0276496Y0104256D01*
X0276000Y0104524D02*
X0276000Y0125524D01*
X0271000Y0130524D01*
X0271000Y0134524D01*
X0274000Y0137524D01*
X0282500Y0137524D01*
X0283000Y0137024D01*
X0266500Y0180024D02*
X0266500Y0239024D01*
X0295000Y0267524D01*
D19*
X0276000Y0226524D03*
X0266500Y0180024D03*
X0238000Y0169524D03*
X0266500Y0159524D03*
X0283000Y0137024D03*
D20*
X0276500Y0132524D02*
X0276250Y0132524D01*
X0276500Y0132524D02*
X0286000Y0123024D01*
X0286000Y0104524D01*
X0286496Y0104256D01*
X0296000Y0104524D02*
X0296496Y0104256D01*
X0296000Y0104524D02*
X0296000Y0128524D01*
X0282000Y0142524D01*
X0282000Y0147024D01*
X0276500Y0152524D01*
X0276250Y0152524D01*
X0276000Y0153524D01*
X0276000Y0154524D01*
X0267500Y0163024D01*
X0258500Y0163024D01*
X0256000Y0160524D01*
X0213000Y0160524D01*
X0205000Y0152524D01*
X0195000Y0152524D02*
X0186500Y0144024D01*
X0186500Y0104524D01*
X0186496Y0104256D01*
X0156500Y0104524D02*
X0156496Y0104256D01*
X0156500Y0104524D02*
X0156500Y0144024D01*
X0165000Y0152524D01*
X0165000Y0182524D02*
X0160000Y0182524D01*
X0145000Y0197524D01*
X0138500Y0204024D01*
X0138500Y0210024D01*
X0145000Y0216524D01*
X0145000Y0227524D01*
X0145000Y0237524D02*
X0147500Y0237524D01*
X0155000Y0245024D01*
X0155000Y0250024D01*
X0137500Y0267524D01*
X0137500Y0272524D01*
X0137087Y0272524D01*
X0123500Y0272524D02*
X0123307Y0272524D01*
X0123500Y0272524D02*
X0145000Y0251024D01*
X0145000Y0247524D01*
X0160000Y0207524D02*
X0168500Y0207524D01*
X0181750Y0194274D01*
X0230000Y0242524D01*
X0235000Y0246524D02*
X0236500Y0245024D01*
X0236500Y0184024D01*
X0235000Y0182524D01*
X0229500Y0177524D02*
X0229500Y0232024D01*
X0230000Y0232524D01*
X0235000Y0246524D02*
X0235000Y0287524D01*
X0276000Y0226524D02*
X0295000Y0207524D01*
X0295000Y0187524D02*
X0295000Y0185524D01*
X0283000Y0173524D01*
X0283000Y0159024D01*
X0277000Y0153024D01*
X0276250Y0152524D01*
X0238000Y0169524D02*
X0232500Y0175024D01*
X0232000Y0175024D01*
X0229500Y0177524D01*
X0195000Y0182524D02*
X0193500Y0182524D01*
X0181750Y0194274D01*
X0118000Y0132524D02*
X0105000Y0132524D01*
X0118000Y0132524D02*
X0146000Y0104524D01*
X0146496Y0104256D01*
M02*
