%
M48
M72
T01C0.0130
T02C0.0276
T03C0.0315
T04C0.0320
T05C0.0354
T06C0.0394
T07C0.0400
T08C0.0440
T09C0.1300
%
T01
X23800Y16952
X26650Y15952
X26650Y18002
X28300Y13702
X27600Y22652
T02
X23000Y23252
X23000Y24252
X16000Y20752
X16000Y19752
X14500Y19752
X14500Y20752
T03
X14650Y10426
X15650Y10426
X16650Y10426
X17650Y10426
X18650Y10426
X19650Y10426
X20650Y10426
X21650Y10426
X22650Y10426
X23650Y10426
X24650Y10426
X25650Y10426
X26650Y10426
X27650Y10426
X28650Y10426
X29650Y10426
T04
X23500Y15252
X22500Y15252
X21500Y15252
X20500Y15252
X19500Y15252
X18500Y15252
X17500Y15252
X16500Y15252
X16500Y18252
X17500Y18252
X18500Y18252
X19500Y18252
X20500Y18252
X21500Y18252
X22500Y18252
X23500Y18252
T05
X27625Y15252
X27625Y14252
X27625Y13252
T06
X13709Y27252
X12331Y27252
T07
X10500Y10252
X10500Y11252
X10500Y12252
X10500Y13252
X10500Y14252
X10500Y15252
X10500Y16252
X10500Y17252
X10500Y18252
X10500Y19252
X12500Y18682
X12500Y19822
X12500Y21182
X12500Y22322
X10500Y22752
X10500Y23752
X10500Y24752
X10500Y25752
X10500Y26752
X10500Y27752
X12500Y24822
X12500Y23682
X10500Y21752
X10500Y20752
X12500Y15322
X12500Y14182
X27500Y17182
X27500Y18322
X29500Y18752
X29500Y17752
X29500Y16752
X29500Y15752
X29500Y14752
X29500Y13752
X29500Y19752
X29500Y20752
X29500Y22752
X29500Y23752
X29500Y24752
X29500Y25752
X29500Y26752
X29500Y27752
X26500Y28752
X25500Y28752
X24500Y28752
X23500Y28752
T08
X14500Y24752
X14500Y23752
X14500Y22752
T09
X20400Y23752
M30
