G75*
%MOIN*%
%OFA0B0*%
%FSLAX25Y25*%
%IPPOS*%
%LPD*%
%AMOC8*
5,1,8,0,0,1.08239X$1,22.5*
%
%ADD10C,0.07300*%
%ADD11C,0.08400*%
%ADD12C,0.07600*%
%ADD13C,0.13800*%
%ADD14C,0.09400*%
%ADD15C,0.08200*%
%ADD16C,0.07200*%
%ADD17C,0.07200*%
%ADD18C,0.07800*%
%ADD19C,0.06350*%
D10*
X0145000Y0147524D03*
X0145000Y0157524D03*
X0145000Y0172524D03*
X0145000Y0182524D03*
X0165000Y0182524D03*
X0165000Y0172524D03*
X0165000Y0157524D03*
X0165000Y0147524D03*
D11*
X0180000Y0167524D03*
X0195000Y0167524D03*
X0195000Y0127524D03*
X0180000Y0127524D03*
D12*
X0186600Y0182524D02*
X0193400Y0182524D01*
X0193400Y0192524D02*
X0186600Y0192524D01*
X0186600Y0202524D02*
X0193400Y0202524D01*
X0193400Y0232524D02*
X0186600Y0232524D01*
X0186600Y0242524D02*
X0193400Y0242524D01*
X0193400Y0252524D02*
X0186600Y0252524D01*
D13*
X0249000Y0242524D03*
X0249000Y0192524D03*
D14*
X0137087Y0272524D03*
X0123307Y0272524D03*
D15*
X0105000Y0277524D03*
X0105000Y0267524D03*
X0105000Y0257524D03*
X0105000Y0247524D03*
X0105000Y0237524D03*
X0105000Y0227524D03*
X0105000Y0217524D03*
X0105000Y0207524D03*
X0125000Y0211824D03*
X0125000Y0223224D03*
X0125000Y0236824D03*
X0125000Y0248224D03*
X0145000Y0252524D03*
X0170000Y0252524D03*
X0170000Y0202524D03*
X0145000Y0202524D03*
X0125000Y0198224D03*
X0125000Y0186824D03*
X0105000Y0182524D03*
X0105000Y0172524D03*
X0105000Y0162524D03*
X0105000Y0152524D03*
X0105000Y0142524D03*
X0105000Y0132524D03*
X0105000Y0122524D03*
X0105000Y0112524D03*
X0105000Y0102524D03*
X0105000Y0192524D03*
X0295000Y0197524D03*
X0295000Y0187524D03*
X0295000Y0177524D03*
X0295000Y0167524D03*
X0295000Y0157524D03*
X0295000Y0147524D03*
X0295000Y0137524D03*
X0295000Y0207524D03*
X0295000Y0227524D03*
X0295000Y0237524D03*
X0295000Y0247524D03*
X0295000Y0257524D03*
X0295000Y0267524D03*
X0295000Y0277524D03*
D16*
X0275000Y0162524D03*
X0275000Y0152524D03*
X0275000Y0142524D03*
X0125000Y0147524D03*
X0125000Y0157524D03*
X0125000Y0137524D03*
D17*
X0235000Y0284324D02*
X0235000Y0290724D01*
X0245000Y0290724D02*
X0245000Y0284324D01*
X0255000Y0284324D02*
X0255000Y0290724D01*
X0265000Y0290724D02*
X0265000Y0284324D01*
D18*
X0251250Y0157524D03*
X0251250Y0147524D03*
X0251250Y0137524D03*
D19*
X0146496Y0107031D02*
X0146496Y0101481D01*
X0156496Y0101481D02*
X0156496Y0107031D01*
X0166496Y0107031D02*
X0166496Y0101481D01*
X0176496Y0101481D02*
X0176496Y0107031D01*
X0186496Y0107031D02*
X0186496Y0101481D01*
X0196496Y0101481D02*
X0196496Y0107031D01*
X0206496Y0107031D02*
X0206496Y0101481D01*
X0216496Y0101481D02*
X0216496Y0107031D01*
X0226496Y0107031D02*
X0226496Y0101481D01*
X0236496Y0101481D02*
X0236496Y0107031D01*
X0246496Y0107031D02*
X0246496Y0101481D01*
X0256496Y0101481D02*
X0256496Y0107031D01*
X0266496Y0107031D02*
X0266496Y0101481D01*
X0276496Y0101481D02*
X0276496Y0107031D01*
X0286496Y0107031D02*
X0286496Y0101481D01*
X0296496Y0101481D02*
X0296496Y0107031D01*
M02*
