G75*
%MOIN*%
%OFA0B0*%
%FSLAX25Y25*%
%IPPOS*%
%LPD*%
%AMOC8*
5,1,8,0,0,1.08239X$1,22.5*
%
%ADD10C,0.00600*%
%ADD11C,0.00800*%
%ADD12C,0.00200*%
%ADD13R,0.02500X0.03000*%
%ADD14R,0.11000X0.05000*%
%ADD15C,0.00500*%
%ADD16C,0.00591*%
%ADD17C,0.01200*%
D10*
X0115300Y0097824D02*
X0115300Y0102227D01*
X0117502Y0102227D01*
X0118236Y0101493D01*
X0118236Y0100025D01*
X0117502Y0099292D01*
X0115300Y0099292D01*
X0119904Y0098558D02*
X0122840Y0101493D01*
X0122840Y0098558D01*
X0122106Y0097824D01*
X0120638Y0097824D01*
X0119904Y0098558D01*
X0119904Y0101493D01*
X0120638Y0102227D01*
X0122106Y0102227D01*
X0122840Y0101493D01*
X0124508Y0098558D02*
X0125242Y0098558D01*
X0125242Y0097824D01*
X0124508Y0097824D01*
X0124508Y0098558D01*
X0126810Y0098558D02*
X0126810Y0101493D01*
X0127544Y0102227D01*
X0129012Y0102227D01*
X0129746Y0101493D01*
X0126810Y0098558D01*
X0127544Y0097824D01*
X0129012Y0097824D01*
X0129746Y0098558D01*
X0129746Y0101493D01*
X0131414Y0102227D02*
X0134350Y0102227D01*
X0134350Y0101493D01*
X0131414Y0098558D01*
X0131414Y0097824D01*
X0146030Y0117824D02*
X0148966Y0117824D01*
X0149700Y0118558D01*
X0149700Y0120025D01*
X0148966Y0120759D01*
X0147498Y0120759D01*
X0147498Y0119292D01*
X0146030Y0120759D02*
X0145296Y0120025D01*
X0145296Y0118558D01*
X0146030Y0117824D01*
X0145296Y0122428D02*
X0149700Y0125363D01*
X0145296Y0125363D01*
X0145296Y0127031D02*
X0145296Y0129233D01*
X0146030Y0129967D01*
X0148966Y0129967D01*
X0149700Y0129233D01*
X0149700Y0127031D01*
X0145296Y0127031D01*
X0145296Y0122428D02*
X0149700Y0122428D01*
X0155296Y0122428D02*
X0158232Y0122428D01*
X0159700Y0123895D01*
X0158232Y0125363D01*
X0155296Y0125363D01*
X0155296Y0120759D02*
X0155296Y0117824D01*
X0157498Y0117824D01*
X0156764Y0119292D01*
X0156764Y0120025D01*
X0157498Y0120759D01*
X0158966Y0120759D01*
X0159700Y0120025D01*
X0159700Y0118558D01*
X0158966Y0117824D01*
X0142444Y0133558D02*
X0141710Y0132824D01*
X0139508Y0132824D01*
X0139508Y0137227D01*
X0141710Y0137227D01*
X0142444Y0136493D01*
X0142444Y0133558D01*
X0137840Y0132824D02*
X0134904Y0132824D01*
X0134904Y0137227D01*
X0137840Y0137227D01*
X0136372Y0135025D02*
X0134904Y0135025D01*
X0133236Y0135025D02*
X0132502Y0134292D01*
X0130300Y0134292D01*
X0131768Y0134292D02*
X0133236Y0132824D01*
X0133236Y0135025D02*
X0133236Y0136493D01*
X0132502Y0137227D01*
X0130300Y0137227D01*
X0130300Y0132824D01*
X0118668Y0136965D02*
X0118668Y0137699D01*
X0117934Y0138433D01*
X0114264Y0138433D01*
X0114264Y0136231D01*
X0114998Y0135497D01*
X0116466Y0135497D01*
X0117200Y0136231D01*
X0117200Y0138433D01*
X0117200Y0140101D02*
X0112796Y0140101D01*
X0114264Y0140835D02*
X0114998Y0140101D01*
X0114264Y0140835D02*
X0114264Y0142303D01*
X0114998Y0143037D01*
X0117200Y0143037D01*
X0116466Y0145439D02*
X0113530Y0145439D01*
X0114264Y0144705D02*
X0114264Y0146173D01*
X0116466Y0145439D02*
X0117200Y0146173D01*
X0117200Y0152378D02*
X0112796Y0152378D01*
X0114264Y0153846D01*
X0112796Y0155314D01*
X0117200Y0155314D01*
X0116466Y0156982D02*
X0114998Y0156982D01*
X0114264Y0157716D01*
X0114264Y0159184D01*
X0114998Y0159918D01*
X0116466Y0159918D01*
X0117200Y0159184D01*
X0117200Y0157716D01*
X0116466Y0156982D01*
X0114264Y0161586D02*
X0114264Y0163054D01*
X0113530Y0162320D02*
X0116466Y0162320D01*
X0117200Y0163054D01*
X0116466Y0164655D02*
X0114998Y0164655D01*
X0114264Y0165389D01*
X0114264Y0166857D01*
X0114998Y0167591D01*
X0116466Y0167591D01*
X0117200Y0166857D01*
X0117200Y0165389D01*
X0116466Y0164655D01*
X0115732Y0169259D02*
X0114264Y0170727D01*
X0114264Y0171461D01*
X0114264Y0169259D02*
X0117200Y0169259D01*
X0117200Y0175967D02*
X0112796Y0175967D01*
X0112796Y0178169D01*
X0113530Y0178903D01*
X0114264Y0178903D01*
X0114998Y0178169D01*
X0114998Y0175967D01*
X0117200Y0175967D02*
X0117200Y0178169D01*
X0116466Y0178903D01*
X0115732Y0178903D01*
X0114998Y0178169D01*
X0114264Y0180571D02*
X0116466Y0180571D01*
X0117200Y0181305D01*
X0117200Y0183507D01*
X0114264Y0183507D01*
X0114264Y0185175D02*
X0114264Y0185909D01*
X0114998Y0186643D01*
X0114264Y0187377D01*
X0114998Y0188111D01*
X0117200Y0188111D01*
X0117200Y0186643D02*
X0114998Y0186643D01*
X0114264Y0185175D02*
X0117200Y0185175D01*
X0117200Y0189779D02*
X0117200Y0191981D01*
X0116466Y0192715D01*
X0114998Y0192715D01*
X0114264Y0191981D01*
X0114264Y0189779D01*
X0118668Y0189779D01*
X0116466Y0194383D02*
X0114998Y0194383D01*
X0114264Y0195117D01*
X0114264Y0196585D01*
X0114998Y0197319D01*
X0115732Y0197319D01*
X0115732Y0194383D01*
X0116466Y0194383D02*
X0117200Y0195117D01*
X0117200Y0196585D01*
X0117200Y0198987D02*
X0114264Y0198987D01*
X0114264Y0200455D02*
X0114264Y0201189D01*
X0114264Y0200455D02*
X0115732Y0198987D01*
X0116466Y0203269D02*
X0117200Y0204003D01*
X0117200Y0205471D01*
X0116466Y0206205D01*
X0115732Y0206205D01*
X0114998Y0205471D01*
X0114998Y0204003D01*
X0114264Y0203269D01*
X0113530Y0203269D01*
X0112796Y0204003D01*
X0112796Y0205471D01*
X0113530Y0206205D01*
X0114998Y0207873D02*
X0114264Y0208607D01*
X0114264Y0210075D01*
X0114998Y0210809D01*
X0115732Y0210809D01*
X0115732Y0207873D01*
X0116466Y0207873D02*
X0114998Y0207873D01*
X0116466Y0207873D02*
X0117200Y0208607D01*
X0117200Y0210075D01*
X0117200Y0212477D02*
X0117200Y0213945D01*
X0117200Y0213211D02*
X0112796Y0213211D01*
X0112796Y0212477D01*
X0114998Y0215546D02*
X0114264Y0216280D01*
X0114264Y0217748D01*
X0114998Y0218482D01*
X0115732Y0218482D01*
X0115732Y0215546D01*
X0116466Y0215546D02*
X0114998Y0215546D01*
X0116466Y0215546D02*
X0117200Y0216280D01*
X0117200Y0217748D01*
X0116466Y0220150D02*
X0114998Y0220150D01*
X0114264Y0220884D01*
X0114264Y0223086D01*
X0114264Y0224754D02*
X0114264Y0226222D01*
X0113530Y0225488D02*
X0116466Y0225488D01*
X0117200Y0226222D01*
X0117200Y0223086D02*
X0117200Y0220884D01*
X0116466Y0220150D01*
X0116466Y0229433D02*
X0113530Y0229433D01*
X0112796Y0230167D01*
X0112796Y0231635D01*
X0113530Y0232369D01*
X0114998Y0234037D02*
X0116466Y0234037D01*
X0117200Y0234771D01*
X0117200Y0236238D01*
X0116466Y0236972D01*
X0114998Y0236972D01*
X0114264Y0236238D01*
X0114264Y0234771D01*
X0114998Y0234037D01*
X0116466Y0232369D02*
X0117200Y0231635D01*
X0117200Y0230167D01*
X0116466Y0229433D01*
X0117200Y0238641D02*
X0114264Y0238641D01*
X0114264Y0240842D01*
X0114998Y0241576D01*
X0117200Y0241576D01*
X0117200Y0243978D02*
X0113530Y0243978D01*
X0112796Y0244712D01*
X0114264Y0246314D02*
X0114264Y0247048D01*
X0117200Y0247048D01*
X0117200Y0246314D02*
X0117200Y0247782D01*
X0117200Y0249383D02*
X0114264Y0249383D01*
X0114264Y0250851D02*
X0114264Y0251585D01*
X0114264Y0250851D02*
X0115732Y0249383D01*
X0112796Y0247048D02*
X0112062Y0247048D01*
X0114998Y0244712D02*
X0114998Y0243244D01*
X0114264Y0253220D02*
X0114264Y0253954D01*
X0114998Y0254688D01*
X0114264Y0255422D01*
X0114998Y0256155D01*
X0117200Y0256155D01*
X0117200Y0254688D02*
X0114998Y0254688D01*
X0114264Y0253220D02*
X0117200Y0253220D01*
X0117502Y0277824D02*
X0116034Y0277824D01*
X0115300Y0278558D01*
X0115300Y0280025D01*
X0117502Y0280025D01*
X0118236Y0279292D01*
X0118236Y0278558D01*
X0117502Y0277824D01*
X0119904Y0279292D02*
X0121372Y0277824D01*
X0122840Y0279292D01*
X0122840Y0282227D01*
X0119904Y0282227D02*
X0119904Y0279292D01*
X0118236Y0282227D02*
X0116768Y0281493D01*
X0115300Y0280025D01*
X0130300Y0278558D02*
X0131034Y0277824D01*
X0132502Y0277824D01*
X0133236Y0278558D01*
X0133236Y0280025D01*
X0131768Y0280025D01*
X0130300Y0278558D02*
X0130300Y0281493D01*
X0131034Y0282227D01*
X0132502Y0282227D01*
X0133236Y0281493D01*
X0134904Y0282227D02*
X0137840Y0277824D01*
X0137840Y0282227D01*
X0139508Y0282227D02*
X0141710Y0282227D01*
X0142444Y0281493D01*
X0142444Y0278558D01*
X0141710Y0277824D01*
X0139508Y0277824D01*
X0139508Y0282227D01*
X0134904Y0282227D02*
X0134904Y0277824D01*
X0155000Y0258024D02*
X0204000Y0258024D01*
X0204000Y0254524D01*
X0210000Y0254524D01*
X0210000Y0258024D01*
X0217500Y0258024D01*
X0217500Y0217024D01*
X0210000Y0217024D01*
X0210000Y0220524D01*
X0204000Y0220524D01*
X0204000Y0217024D01*
X0155000Y0217024D01*
X0155000Y0258024D01*
X0161800Y0253227D02*
X0161800Y0248824D01*
X0164736Y0248824D01*
X0166404Y0248824D02*
X0166404Y0253227D01*
X0167872Y0251759D01*
X0169340Y0253227D01*
X0169340Y0248824D01*
X0171008Y0249558D02*
X0171742Y0248824D01*
X0173210Y0248824D01*
X0173944Y0249558D01*
X0173944Y0250292D01*
X0173210Y0251025D01*
X0172476Y0251025D01*
X0173210Y0251025D02*
X0173944Y0251759D01*
X0173944Y0252493D01*
X0173210Y0253227D01*
X0171742Y0253227D01*
X0171008Y0252493D01*
X0175612Y0251025D02*
X0178548Y0251025D01*
X0180216Y0249558D02*
X0183152Y0252493D01*
X0183152Y0249558D01*
X0182418Y0248824D01*
X0180950Y0248824D01*
X0180216Y0249558D01*
X0180216Y0252493D01*
X0180950Y0253227D01*
X0182418Y0253227D01*
X0183152Y0252493D01*
X0184820Y0253227D02*
X0184820Y0248824D01*
X0184820Y0251025D02*
X0187755Y0251025D01*
X0189424Y0251025D02*
X0192359Y0251025D01*
X0194027Y0249558D02*
X0196963Y0252493D01*
X0196963Y0249558D01*
X0196229Y0248824D01*
X0194761Y0248824D01*
X0194027Y0249558D01*
X0194027Y0252493D01*
X0194761Y0253227D01*
X0196229Y0253227D01*
X0196963Y0252493D01*
X0198631Y0253227D02*
X0198631Y0251025D01*
X0200099Y0251759D01*
X0200833Y0251759D01*
X0201567Y0251025D01*
X0201567Y0249558D01*
X0200833Y0248824D01*
X0199365Y0248824D01*
X0198631Y0249558D01*
X0198631Y0253227D02*
X0201567Y0253227D01*
X0187755Y0253227D02*
X0187755Y0248824D01*
X0177814Y0248824D02*
X0177814Y0253227D01*
X0175612Y0251025D01*
X0196900Y0237524D02*
X0196902Y0237698D01*
X0196909Y0237872D01*
X0196919Y0238046D01*
X0196934Y0238220D01*
X0196953Y0238393D01*
X0196977Y0238566D01*
X0197005Y0238738D01*
X0197036Y0238909D01*
X0197073Y0239080D01*
X0197113Y0239249D01*
X0197157Y0239418D01*
X0197206Y0239585D01*
X0197258Y0239751D01*
X0197315Y0239916D01*
X0197376Y0240079D01*
X0197440Y0240241D01*
X0197509Y0240401D01*
X0197582Y0240560D01*
X0197658Y0240716D01*
X0197738Y0240871D01*
X0197822Y0241024D01*
X0197910Y0241174D01*
X0198002Y0241322D01*
X0198097Y0241469D01*
X0198195Y0241612D01*
X0198297Y0241753D01*
X0198403Y0241892D01*
X0198512Y0242028D01*
X0198624Y0242162D01*
X0198739Y0242292D01*
X0198858Y0242420D01*
X0198980Y0242544D01*
X0199104Y0242666D01*
X0199232Y0242785D01*
X0199362Y0242900D01*
X0199496Y0243012D01*
X0199632Y0243121D01*
X0199771Y0243227D01*
X0199912Y0243329D01*
X0200055Y0243427D01*
X0200202Y0243522D01*
X0200350Y0243614D01*
X0200500Y0243702D01*
X0200653Y0243786D01*
X0200808Y0243866D01*
X0200964Y0243942D01*
X0201123Y0244015D01*
X0201283Y0244084D01*
X0201445Y0244148D01*
X0201608Y0244209D01*
X0201773Y0244266D01*
X0201939Y0244318D01*
X0202106Y0244367D01*
X0202275Y0244411D01*
X0202444Y0244451D01*
X0202615Y0244488D01*
X0202786Y0244519D01*
X0202958Y0244547D01*
X0203131Y0244571D01*
X0203304Y0244590D01*
X0203478Y0244605D01*
X0203652Y0244615D01*
X0203826Y0244622D01*
X0204000Y0244624D01*
X0204174Y0244622D01*
X0204348Y0244615D01*
X0204522Y0244605D01*
X0204696Y0244590D01*
X0204869Y0244571D01*
X0205042Y0244547D01*
X0205214Y0244519D01*
X0205385Y0244488D01*
X0205556Y0244451D01*
X0205725Y0244411D01*
X0205894Y0244367D01*
X0206061Y0244318D01*
X0206227Y0244266D01*
X0206392Y0244209D01*
X0206555Y0244148D01*
X0206717Y0244084D01*
X0206877Y0244015D01*
X0207036Y0243942D01*
X0207192Y0243866D01*
X0207347Y0243786D01*
X0207500Y0243702D01*
X0207650Y0243614D01*
X0207798Y0243522D01*
X0207945Y0243427D01*
X0208088Y0243329D01*
X0208229Y0243227D01*
X0208368Y0243121D01*
X0208504Y0243012D01*
X0208638Y0242900D01*
X0208768Y0242785D01*
X0208896Y0242666D01*
X0209020Y0242544D01*
X0209142Y0242420D01*
X0209261Y0242292D01*
X0209376Y0242162D01*
X0209488Y0242028D01*
X0209597Y0241892D01*
X0209703Y0241753D01*
X0209805Y0241612D01*
X0209903Y0241469D01*
X0209998Y0241322D01*
X0210090Y0241174D01*
X0210178Y0241024D01*
X0210262Y0240871D01*
X0210342Y0240716D01*
X0210418Y0240560D01*
X0210491Y0240401D01*
X0210560Y0240241D01*
X0210624Y0240079D01*
X0210685Y0239916D01*
X0210742Y0239751D01*
X0210794Y0239585D01*
X0210843Y0239418D01*
X0210887Y0239249D01*
X0210927Y0239080D01*
X0210964Y0238909D01*
X0210995Y0238738D01*
X0211023Y0238566D01*
X0211047Y0238393D01*
X0211066Y0238220D01*
X0211081Y0238046D01*
X0211091Y0237872D01*
X0211098Y0237698D01*
X0211100Y0237524D01*
X0211098Y0237350D01*
X0211091Y0237176D01*
X0211081Y0237002D01*
X0211066Y0236828D01*
X0211047Y0236655D01*
X0211023Y0236482D01*
X0210995Y0236310D01*
X0210964Y0236139D01*
X0210927Y0235968D01*
X0210887Y0235799D01*
X0210843Y0235630D01*
X0210794Y0235463D01*
X0210742Y0235297D01*
X0210685Y0235132D01*
X0210624Y0234969D01*
X0210560Y0234807D01*
X0210491Y0234647D01*
X0210418Y0234488D01*
X0210342Y0234332D01*
X0210262Y0234177D01*
X0210178Y0234024D01*
X0210090Y0233874D01*
X0209998Y0233726D01*
X0209903Y0233579D01*
X0209805Y0233436D01*
X0209703Y0233295D01*
X0209597Y0233156D01*
X0209488Y0233020D01*
X0209376Y0232886D01*
X0209261Y0232756D01*
X0209142Y0232628D01*
X0209020Y0232504D01*
X0208896Y0232382D01*
X0208768Y0232263D01*
X0208638Y0232148D01*
X0208504Y0232036D01*
X0208368Y0231927D01*
X0208229Y0231821D01*
X0208088Y0231719D01*
X0207945Y0231621D01*
X0207798Y0231526D01*
X0207650Y0231434D01*
X0207500Y0231346D01*
X0207347Y0231262D01*
X0207192Y0231182D01*
X0207036Y0231106D01*
X0206877Y0231033D01*
X0206717Y0230964D01*
X0206555Y0230900D01*
X0206392Y0230839D01*
X0206227Y0230782D01*
X0206061Y0230730D01*
X0205894Y0230681D01*
X0205725Y0230637D01*
X0205556Y0230597D01*
X0205385Y0230560D01*
X0205214Y0230529D01*
X0205042Y0230501D01*
X0204869Y0230477D01*
X0204696Y0230458D01*
X0204522Y0230443D01*
X0204348Y0230433D01*
X0204174Y0230426D01*
X0204000Y0230424D01*
X0203826Y0230426D01*
X0203652Y0230433D01*
X0203478Y0230443D01*
X0203304Y0230458D01*
X0203131Y0230477D01*
X0202958Y0230501D01*
X0202786Y0230529D01*
X0202615Y0230560D01*
X0202444Y0230597D01*
X0202275Y0230637D01*
X0202106Y0230681D01*
X0201939Y0230730D01*
X0201773Y0230782D01*
X0201608Y0230839D01*
X0201445Y0230900D01*
X0201283Y0230964D01*
X0201123Y0231033D01*
X0200964Y0231106D01*
X0200808Y0231182D01*
X0200653Y0231262D01*
X0200500Y0231346D01*
X0200350Y0231434D01*
X0200202Y0231526D01*
X0200055Y0231621D01*
X0199912Y0231719D01*
X0199771Y0231821D01*
X0199632Y0231927D01*
X0199496Y0232036D01*
X0199362Y0232148D01*
X0199232Y0232263D01*
X0199104Y0232382D01*
X0198980Y0232504D01*
X0198858Y0232628D01*
X0198739Y0232756D01*
X0198624Y0232886D01*
X0198512Y0233020D01*
X0198403Y0233156D01*
X0198297Y0233295D01*
X0198195Y0233436D01*
X0198097Y0233579D01*
X0198002Y0233726D01*
X0197910Y0233874D01*
X0197822Y0234024D01*
X0197738Y0234177D01*
X0197658Y0234332D01*
X0197582Y0234488D01*
X0197509Y0234647D01*
X0197440Y0234807D01*
X0197376Y0234969D01*
X0197315Y0235132D01*
X0197258Y0235297D01*
X0197206Y0235463D01*
X0197157Y0235630D01*
X0197113Y0235799D01*
X0197073Y0235968D01*
X0197036Y0236139D01*
X0197005Y0236310D01*
X0196977Y0236482D01*
X0196953Y0236655D01*
X0196934Y0236828D01*
X0196919Y0237002D01*
X0196909Y0237176D01*
X0196902Y0237350D01*
X0196900Y0237524D01*
X0221296Y0235292D02*
X0225700Y0235292D01*
X0225700Y0236759D02*
X0225700Y0233824D01*
X0222764Y0233824D02*
X0221296Y0235292D01*
X0222764Y0238428D02*
X0224966Y0238428D01*
X0225700Y0239162D01*
X0225700Y0241363D01*
X0222764Y0241363D01*
X0223498Y0243031D02*
X0223498Y0244499D01*
X0221296Y0243031D02*
X0221296Y0245967D01*
X0221296Y0243031D02*
X0225700Y0243031D01*
X0230300Y0250025D02*
X0233236Y0250025D01*
X0233508Y0271324D02*
X0233508Y0275727D01*
X0235176Y0274993D02*
X0235910Y0275727D01*
X0237378Y0275727D01*
X0238112Y0274993D01*
X0238112Y0272058D02*
X0237378Y0271324D01*
X0235910Y0271324D01*
X0235176Y0272058D01*
X0235176Y0274993D01*
X0233508Y0273525D02*
X0230572Y0273525D01*
X0230572Y0271324D02*
X0230572Y0275727D01*
X0227840Y0279292D02*
X0227840Y0282227D01*
X0227840Y0279292D02*
X0226372Y0277824D01*
X0224904Y0279292D01*
X0224904Y0282227D01*
X0223236Y0282227D02*
X0220300Y0282227D01*
X0220300Y0280025D01*
X0221768Y0280759D01*
X0222502Y0280759D01*
X0223236Y0280025D01*
X0223236Y0278558D01*
X0222502Y0277824D01*
X0221034Y0277824D01*
X0220300Y0278558D01*
X0230000Y0285024D02*
X0230000Y0290024D01*
X0232500Y0292524D01*
X0237500Y0292524D01*
X0240000Y0290024D01*
X0242500Y0292524D01*
X0247500Y0292524D01*
X0250000Y0290024D01*
X0252500Y0292524D01*
X0257500Y0292524D01*
X0260000Y0290024D01*
X0262500Y0292524D01*
X0267500Y0292524D01*
X0270000Y0290024D01*
X0270000Y0285024D01*
X0267500Y0282524D01*
X0262500Y0282524D01*
X0260000Y0285024D01*
X0257500Y0282524D01*
X0252500Y0282524D01*
X0250000Y0285024D01*
X0247500Y0282524D01*
X0242500Y0282524D01*
X0240000Y0285024D01*
X0237500Y0282524D01*
X0232500Y0282524D01*
X0230000Y0285024D01*
X0244384Y0274993D02*
X0245118Y0275727D01*
X0246586Y0275727D01*
X0247320Y0274993D01*
X0246586Y0273525D02*
X0247320Y0272792D01*
X0247320Y0272058D01*
X0246586Y0271324D01*
X0245118Y0271324D01*
X0244384Y0272058D01*
X0245118Y0273525D02*
X0246586Y0273525D01*
X0245118Y0273525D02*
X0244384Y0274259D01*
X0244384Y0274993D01*
X0248988Y0275727D02*
X0248988Y0271324D01*
X0248988Y0272792D02*
X0251190Y0272792D01*
X0251924Y0273525D01*
X0251924Y0274993D01*
X0251190Y0275727D01*
X0248988Y0275727D01*
X0250456Y0272792D02*
X0251924Y0271324D01*
X0253592Y0272058D02*
X0256528Y0274993D01*
X0256528Y0272058D01*
X0255794Y0271324D01*
X0254326Y0271324D01*
X0253592Y0272058D01*
X0253592Y0274993D01*
X0254326Y0275727D01*
X0255794Y0275727D01*
X0256528Y0274993D01*
X0258196Y0273525D02*
X0261132Y0273525D01*
X0260398Y0271324D02*
X0260398Y0275727D01*
X0258196Y0273525D01*
X0270300Y0278558D02*
X0270300Y0281493D01*
X0271034Y0282227D01*
X0272502Y0282227D01*
X0273236Y0281493D01*
X0273236Y0280025D02*
X0271768Y0280025D01*
X0273236Y0280025D02*
X0273236Y0278558D01*
X0272502Y0277824D01*
X0271034Y0277824D01*
X0270300Y0278558D01*
X0274904Y0277824D02*
X0274904Y0282227D01*
X0277840Y0277824D01*
X0277840Y0282227D01*
X0279508Y0282227D02*
X0281710Y0282227D01*
X0282444Y0281493D01*
X0282444Y0278558D01*
X0281710Y0277824D01*
X0279508Y0277824D01*
X0279508Y0282227D01*
X0285300Y0287824D02*
X0285300Y0292227D01*
X0287502Y0292227D01*
X0288236Y0291493D01*
X0288236Y0290025D01*
X0287502Y0289292D01*
X0285300Y0289292D01*
X0289904Y0288558D02*
X0292840Y0291493D01*
X0292840Y0288558D01*
X0292106Y0287824D01*
X0290638Y0287824D01*
X0289904Y0288558D01*
X0289904Y0291493D01*
X0290638Y0292227D01*
X0292106Y0292227D01*
X0292840Y0291493D01*
X0294508Y0288558D02*
X0295242Y0288558D01*
X0295242Y0287824D01*
X0294508Y0287824D01*
X0294508Y0288558D01*
X0296810Y0288558D02*
X0299746Y0291493D01*
X0299746Y0288558D01*
X0299012Y0287824D01*
X0297544Y0287824D01*
X0296810Y0288558D01*
X0296810Y0291493D01*
X0297544Y0292227D01*
X0299012Y0292227D01*
X0299746Y0291493D01*
X0301414Y0290025D02*
X0303616Y0290025D01*
X0304350Y0289292D01*
X0304350Y0288558D01*
X0303616Y0287824D01*
X0302148Y0287824D01*
X0301414Y0288558D01*
X0301414Y0290025D01*
X0302882Y0291493D01*
X0304350Y0292227D01*
X0233236Y0225025D02*
X0230300Y0225025D01*
X0231768Y0223558D02*
X0231768Y0226493D01*
X0240300Y0221493D02*
X0241034Y0222227D01*
X0242502Y0222227D01*
X0243236Y0221493D01*
X0243236Y0220759D01*
X0242502Y0220025D01*
X0243236Y0219292D01*
X0243236Y0218558D01*
X0242502Y0217824D01*
X0241034Y0217824D01*
X0240300Y0218558D01*
X0241768Y0220025D02*
X0242502Y0220025D01*
X0244904Y0218558D02*
X0245638Y0218558D01*
X0245638Y0217824D01*
X0244904Y0217824D01*
X0244904Y0218558D01*
X0247206Y0218558D02*
X0247940Y0217824D01*
X0249408Y0217824D01*
X0250142Y0218558D01*
X0250142Y0219292D01*
X0249408Y0220025D01*
X0248674Y0220025D01*
X0249408Y0220025D02*
X0250142Y0220759D01*
X0250142Y0221493D01*
X0249408Y0222227D01*
X0247940Y0222227D01*
X0247206Y0221493D01*
X0251810Y0222227D02*
X0251810Y0219292D01*
X0253278Y0217824D01*
X0254746Y0219292D01*
X0254746Y0222227D01*
X0280300Y0222227D02*
X0280300Y0217824D01*
X0280300Y0219292D02*
X0282502Y0219292D01*
X0283236Y0220025D01*
X0283236Y0221493D01*
X0282502Y0222227D01*
X0280300Y0222227D01*
X0284904Y0221493D02*
X0285638Y0222227D01*
X0287106Y0222227D01*
X0287840Y0221493D01*
X0284904Y0218558D01*
X0285638Y0217824D01*
X0287106Y0217824D01*
X0287840Y0218558D01*
X0287840Y0221493D01*
X0284904Y0221493D02*
X0284904Y0218558D01*
X0289508Y0218558D02*
X0289508Y0217824D01*
X0290242Y0217824D01*
X0290242Y0218558D01*
X0289508Y0218558D01*
X0291810Y0218558D02*
X0294746Y0221493D01*
X0294746Y0218558D01*
X0294012Y0217824D01*
X0292544Y0217824D01*
X0291810Y0218558D01*
X0291810Y0221493D01*
X0292544Y0222227D01*
X0294012Y0222227D01*
X0294746Y0221493D01*
X0296414Y0220759D02*
X0297882Y0222227D01*
X0297882Y0217824D01*
X0296414Y0217824D02*
X0299350Y0217824D01*
X0287200Y0204655D02*
X0284264Y0204655D01*
X0284264Y0206123D02*
X0284264Y0206857D01*
X0284264Y0206123D02*
X0285732Y0204655D01*
X0284998Y0202987D02*
X0284264Y0202253D01*
X0284264Y0200785D01*
X0284998Y0200051D01*
X0286466Y0200051D01*
X0287200Y0200785D01*
X0287200Y0202253D01*
X0286466Y0202987D01*
X0284998Y0202987D01*
X0284264Y0198450D02*
X0284264Y0196982D01*
X0283530Y0197716D02*
X0286466Y0197716D01*
X0287200Y0198450D01*
X0286466Y0195314D02*
X0284998Y0195314D01*
X0284264Y0194580D01*
X0284264Y0193112D01*
X0284998Y0192378D01*
X0286466Y0192378D01*
X0287200Y0193112D01*
X0287200Y0194580D01*
X0286466Y0195314D01*
X0287200Y0190710D02*
X0282796Y0190710D01*
X0284264Y0189242D01*
X0282796Y0187774D01*
X0287200Y0187774D01*
X0287200Y0181569D02*
X0286466Y0180835D01*
X0283530Y0180835D01*
X0284264Y0180101D02*
X0284264Y0181569D01*
X0284998Y0178499D02*
X0284998Y0177031D01*
X0283530Y0177765D02*
X0287200Y0177765D01*
X0285732Y0175363D02*
X0285732Y0172428D01*
X0284998Y0172428D02*
X0284264Y0173162D01*
X0284264Y0174629D01*
X0284998Y0175363D01*
X0285732Y0175363D01*
X0287200Y0174629D02*
X0287200Y0173162D01*
X0286466Y0172428D01*
X0284998Y0172428D01*
X0287200Y0170759D02*
X0287200Y0167824D01*
X0282796Y0167824D01*
X0281710Y0162227D02*
X0279508Y0162227D01*
X0279508Y0157824D01*
X0281710Y0157824D01*
X0282444Y0158558D01*
X0282444Y0161493D01*
X0281710Y0162227D01*
X0277840Y0162227D02*
X0277840Y0157824D01*
X0274904Y0162227D01*
X0274904Y0157824D01*
X0273236Y0158558D02*
X0273236Y0160025D01*
X0271768Y0160025D01*
X0273236Y0158558D02*
X0272502Y0157824D01*
X0271034Y0157824D01*
X0270300Y0158558D01*
X0270300Y0161493D01*
X0271034Y0162227D01*
X0272502Y0162227D01*
X0273236Y0161493D01*
X0266652Y0167824D02*
X0264450Y0170025D01*
X0263716Y0169292D02*
X0266652Y0172227D01*
X0263716Y0172227D02*
X0263716Y0167824D01*
X0262048Y0168558D02*
X0261314Y0167824D01*
X0259846Y0167824D01*
X0259112Y0168558D01*
X0259112Y0171493D01*
X0259846Y0172227D01*
X0261314Y0172227D01*
X0262048Y0171493D01*
X0257444Y0170759D02*
X0257444Y0167824D01*
X0257444Y0170025D02*
X0254508Y0170025D01*
X0254508Y0170759D02*
X0254508Y0167824D01*
X0252840Y0167824D02*
X0249904Y0167824D01*
X0249904Y0172227D01*
X0248236Y0171493D02*
X0248236Y0170759D01*
X0247502Y0170025D01*
X0245300Y0170025D01*
X0245300Y0167824D02*
X0247502Y0167824D01*
X0248236Y0168558D01*
X0248236Y0169292D01*
X0247502Y0170025D01*
X0248236Y0171493D02*
X0247502Y0172227D01*
X0245300Y0172227D01*
X0245300Y0167824D01*
X0236260Y0164727D02*
X0233324Y0164727D01*
X0233324Y0160324D01*
X0236260Y0160324D01*
X0234792Y0162525D02*
X0233324Y0162525D01*
X0231656Y0162525D02*
X0231656Y0161058D01*
X0230922Y0160324D01*
X0229454Y0160324D01*
X0228720Y0161058D01*
X0228720Y0163993D01*
X0229454Y0164727D01*
X0230922Y0164727D01*
X0231656Y0163993D01*
X0231656Y0162525D02*
X0230188Y0162525D01*
X0227052Y0161058D02*
X0227052Y0163993D01*
X0226318Y0164727D01*
X0224116Y0164727D01*
X0224116Y0160324D01*
X0226318Y0160324D01*
X0227052Y0161058D01*
X0222515Y0160324D02*
X0221047Y0160324D01*
X0221781Y0160324D02*
X0221781Y0164727D01*
X0221047Y0164727D02*
X0222515Y0164727D01*
X0219379Y0163993D02*
X0219379Y0162525D01*
X0218645Y0161792D01*
X0216443Y0161792D01*
X0217911Y0161792D02*
X0219379Y0160324D01*
X0216443Y0160324D02*
X0216443Y0164727D01*
X0218645Y0164727D01*
X0219379Y0163993D01*
X0214775Y0163993D02*
X0214041Y0164727D01*
X0211839Y0164727D01*
X0211839Y0160324D01*
X0214041Y0160324D01*
X0214775Y0161058D01*
X0214775Y0161792D01*
X0214041Y0162525D01*
X0211839Y0162525D01*
X0214041Y0162525D02*
X0214775Y0163259D01*
X0214775Y0163993D01*
X0210171Y0159590D02*
X0207235Y0159590D01*
X0205567Y0160324D02*
X0205567Y0164727D01*
X0205567Y0162525D02*
X0202631Y0162525D01*
X0202631Y0160324D02*
X0202631Y0164727D01*
X0194891Y0164727D02*
X0194891Y0160324D01*
X0193424Y0160324D02*
X0196359Y0160324D01*
X0198027Y0159590D02*
X0200963Y0159590D01*
X0194891Y0164727D02*
X0193424Y0163259D01*
X0191755Y0162525D02*
X0188820Y0162525D01*
X0191021Y0164727D01*
X0191021Y0160324D01*
X0187152Y0162525D02*
X0184216Y0162525D01*
X0186418Y0164727D01*
X0186418Y0160324D01*
X0182548Y0161058D02*
X0182548Y0162525D01*
X0181814Y0163259D01*
X0181080Y0163259D01*
X0179612Y0162525D01*
X0179612Y0164727D01*
X0182548Y0164727D01*
X0177944Y0164727D02*
X0177944Y0163993D01*
X0175008Y0161058D01*
X0175008Y0160324D01*
X0173340Y0160324D02*
X0173340Y0164727D01*
X0175008Y0164727D02*
X0177944Y0164727D01*
X0179612Y0161058D02*
X0180346Y0160324D01*
X0181814Y0160324D01*
X0182548Y0161058D01*
X0173340Y0160324D02*
X0170404Y0164727D01*
X0170404Y0160324D01*
X0168736Y0161058D02*
X0168002Y0160324D01*
X0166534Y0160324D01*
X0165800Y0161058D01*
X0166534Y0162525D02*
X0168002Y0162525D01*
X0168736Y0161792D01*
X0168736Y0161058D01*
X0166534Y0162525D02*
X0165800Y0163259D01*
X0165800Y0163993D01*
X0166534Y0164727D01*
X0168002Y0164727D01*
X0168736Y0163993D01*
X0151652Y0162227D02*
X0148716Y0159292D01*
X0149450Y0160025D02*
X0151652Y0157824D01*
X0148716Y0157824D02*
X0148716Y0162227D01*
X0147048Y0161493D02*
X0146314Y0162227D01*
X0144846Y0162227D01*
X0144112Y0161493D01*
X0144112Y0158558D01*
X0144846Y0157824D01*
X0146314Y0157824D01*
X0147048Y0158558D01*
X0142444Y0157824D02*
X0142444Y0160759D01*
X0140976Y0162227D01*
X0139508Y0160759D01*
X0139508Y0157824D01*
X0137840Y0157824D02*
X0134904Y0157824D01*
X0134904Y0162227D01*
X0133236Y0161493D02*
X0133236Y0160759D01*
X0132502Y0160025D01*
X0130300Y0160025D01*
X0130300Y0157824D02*
X0132502Y0157824D01*
X0133236Y0158558D01*
X0133236Y0159292D01*
X0132502Y0160025D01*
X0133236Y0161493D02*
X0132502Y0162227D01*
X0130300Y0162227D01*
X0130300Y0157824D01*
X0139508Y0160025D02*
X0142444Y0160025D01*
X0117200Y0133895D02*
X0117200Y0132428D01*
X0117200Y0133162D02*
X0114264Y0133162D01*
X0114264Y0132428D01*
X0112796Y0133162D02*
X0112062Y0133162D01*
X0113530Y0130759D02*
X0114998Y0130759D01*
X0115732Y0130025D01*
X0115732Y0127824D01*
X0115732Y0129292D02*
X0117200Y0130759D01*
X0117200Y0127824D02*
X0112796Y0127824D01*
X0112796Y0130025D01*
X0113530Y0130759D01*
X0151768Y0193558D02*
X0151768Y0196493D01*
X0150300Y0195025D02*
X0153236Y0195025D01*
X0140700Y0198824D02*
X0140700Y0201759D01*
X0140700Y0200292D02*
X0136296Y0200292D01*
X0137764Y0198824D01*
X0137764Y0203428D02*
X0139966Y0203428D01*
X0140700Y0204162D01*
X0140700Y0206363D01*
X0137764Y0206363D01*
X0138498Y0208031D02*
X0138498Y0209499D01*
X0140700Y0208031D02*
X0136296Y0208031D01*
X0136296Y0210967D01*
X0141034Y0217824D02*
X0140300Y0218558D01*
X0141034Y0217824D02*
X0142502Y0217824D01*
X0143236Y0218558D01*
X0143236Y0220025D01*
X0142502Y0220759D01*
X0141768Y0220759D01*
X0140300Y0220025D01*
X0140300Y0222227D01*
X0143236Y0222227D01*
X0144904Y0222227D02*
X0144904Y0219292D01*
X0146372Y0217824D01*
X0147840Y0219292D01*
X0147840Y0222227D01*
X0150300Y0210025D02*
X0153236Y0210025D01*
X0166296Y0210967D02*
X0166296Y0208031D01*
X0170700Y0208031D01*
X0170700Y0206363D02*
X0167764Y0206363D01*
X0168498Y0208031D02*
X0168498Y0209499D01*
X0170700Y0206363D02*
X0170700Y0204162D01*
X0169966Y0203428D01*
X0167764Y0203428D01*
X0170700Y0201759D02*
X0170700Y0198824D01*
X0170700Y0200292D02*
X0166296Y0200292D01*
X0167764Y0198824D01*
X0255300Y0192227D02*
X0255300Y0187824D01*
X0255300Y0189292D02*
X0257502Y0189292D01*
X0258236Y0190025D01*
X0258236Y0191493D01*
X0257502Y0192227D01*
X0255300Y0192227D01*
X0256768Y0189292D02*
X0258236Y0187824D01*
X0259904Y0187824D02*
X0262840Y0187824D01*
X0264508Y0187824D02*
X0266710Y0187824D01*
X0267444Y0188558D01*
X0267444Y0191493D01*
X0266710Y0192227D01*
X0264508Y0192227D01*
X0264508Y0187824D01*
X0261372Y0190025D02*
X0259904Y0190025D01*
X0259904Y0187824D02*
X0259904Y0192227D01*
X0262840Y0192227D01*
X0282796Y0178499D02*
X0283530Y0177765D01*
X0257444Y0170759D02*
X0255976Y0172227D01*
X0254508Y0170759D01*
X0270300Y0127227D02*
X0270300Y0125025D01*
X0271768Y0125759D01*
X0272502Y0125759D01*
X0273236Y0125025D01*
X0273236Y0123558D01*
X0272502Y0122824D01*
X0271034Y0122824D01*
X0270300Y0123558D01*
X0270300Y0127227D02*
X0273236Y0127227D01*
X0274904Y0127227D02*
X0274904Y0124292D01*
X0276372Y0122824D01*
X0277840Y0124292D01*
X0277840Y0127227D01*
X0261165Y0120759D02*
X0258963Y0119292D01*
X0261165Y0117824D01*
X0258963Y0117824D02*
X0258963Y0122227D01*
X0257295Y0121493D02*
X0257295Y0118558D01*
X0256561Y0117824D01*
X0255093Y0117824D01*
X0254359Y0118558D01*
X0257295Y0121493D01*
X0256561Y0122227D01*
X0255093Y0122227D01*
X0254359Y0121493D01*
X0254359Y0118558D01*
X0252691Y0117824D02*
X0249756Y0117824D01*
X0251223Y0117824D02*
X0251223Y0122227D01*
X0249756Y0120759D01*
D11*
X0272500Y0167524D02*
X0270000Y0170024D01*
X0270000Y0175024D01*
X0272500Y0177524D01*
X0270000Y0180024D01*
X0270000Y0185024D01*
X0272500Y0187524D01*
X0277500Y0187524D01*
X0280000Y0185024D01*
X0280000Y0180024D01*
X0277500Y0177524D01*
X0280000Y0175024D01*
X0280000Y0170024D01*
X0277500Y0167524D01*
X0272500Y0167524D01*
X0267000Y0224622D02*
X0253000Y0224622D01*
X0253000Y0250425D01*
X0267000Y0250425D01*
X0267000Y0224622D01*
X0232500Y0237524D02*
X0227500Y0237524D01*
X0162500Y0202524D02*
X0157500Y0202524D01*
X0147500Y0202524D02*
X0142500Y0202524D01*
X0130000Y0200024D02*
X0130000Y0195024D01*
X0127500Y0192524D01*
X0130000Y0190024D01*
X0130000Y0185024D01*
X0127500Y0182524D01*
X0122500Y0182524D01*
X0120000Y0185024D01*
X0120000Y0190024D01*
X0122500Y0192524D01*
X0120000Y0195024D01*
X0120000Y0200024D01*
X0122500Y0202524D01*
X0127500Y0202524D01*
X0130000Y0200024D01*
X0127500Y0207524D02*
X0122500Y0207524D01*
X0120000Y0210024D01*
X0120000Y0215024D01*
X0122500Y0217524D01*
X0120000Y0220024D01*
X0120000Y0225024D01*
X0122500Y0227524D01*
X0127500Y0227524D01*
X0130000Y0225024D01*
X0130000Y0220024D01*
X0127500Y0217524D01*
X0130000Y0215024D01*
X0130000Y0210024D01*
X0127500Y0207524D01*
X0127500Y0232524D02*
X0122500Y0232524D01*
X0120000Y0235024D01*
X0120000Y0240024D01*
X0122500Y0242524D01*
X0120000Y0245024D01*
X0120000Y0250024D01*
X0122500Y0252524D01*
X0127500Y0252524D01*
X0130000Y0250024D01*
X0130000Y0245024D01*
X0127500Y0242524D01*
X0130000Y0240024D01*
X0130000Y0235024D01*
X0127500Y0232524D01*
X0127500Y0157524D02*
X0122500Y0157524D01*
X0120000Y0155024D01*
X0120000Y0150024D01*
X0122500Y0147524D01*
X0120000Y0145024D01*
X0120000Y0140024D01*
X0122500Y0137524D01*
X0127500Y0137524D01*
X0130000Y0140024D01*
X0130000Y0145024D01*
X0127500Y0147524D01*
X0130000Y0150024D01*
X0130000Y0155024D01*
X0127500Y0157524D01*
D12*
X0157500Y0219524D02*
X0190000Y0219524D01*
X0190000Y0255524D01*
X0157500Y0255524D01*
X0157500Y0219524D01*
D13*
X0142750Y0227524D03*
X0142750Y0237524D03*
X0142750Y0247524D03*
D14*
X0149500Y0247524D03*
X0149500Y0237524D03*
X0149500Y0227524D03*
D15*
X0144173Y0258350D02*
X0116614Y0258350D01*
X0116614Y0263862D01*
X0144173Y0263862D01*
X0144173Y0285909D01*
X0116614Y0285909D01*
X0116614Y0263862D01*
X0144173Y0263862D02*
X0144173Y0258350D01*
X0224646Y0287526D02*
X0227649Y0287526D01*
X0226898Y0289777D02*
X0224646Y0287526D01*
X0226898Y0285274D02*
X0226898Y0289777D01*
X0270146Y0288276D02*
X0271647Y0289777D01*
X0271647Y0285274D01*
X0270146Y0285274D02*
X0273149Y0285274D01*
X0283750Y0161274D02*
X0246250Y0161274D01*
X0246250Y0123774D01*
X0283750Y0123774D01*
X0283750Y0161274D01*
X0252000Y0142524D02*
X0252004Y0142843D01*
X0252016Y0143162D01*
X0252035Y0143480D01*
X0252063Y0143798D01*
X0252098Y0144115D01*
X0252141Y0144431D01*
X0252191Y0144747D01*
X0252250Y0145060D01*
X0252316Y0145372D01*
X0252390Y0145683D01*
X0252471Y0145991D01*
X0252560Y0146298D01*
X0252656Y0146602D01*
X0252760Y0146904D01*
X0252871Y0147203D01*
X0252990Y0147499D01*
X0253115Y0147792D01*
X0253248Y0148082D01*
X0253388Y0148369D01*
X0253535Y0148652D01*
X0253689Y0148932D01*
X0253850Y0149207D01*
X0254017Y0149479D01*
X0254191Y0149746D01*
X0254371Y0150010D01*
X0254558Y0150268D01*
X0254751Y0150522D01*
X0254951Y0150771D01*
X0255156Y0151015D01*
X0255368Y0151254D01*
X0255585Y0151488D01*
X0255808Y0151716D01*
X0256036Y0151939D01*
X0256270Y0152156D01*
X0256509Y0152368D01*
X0256753Y0152573D01*
X0257002Y0152773D01*
X0257256Y0152966D01*
X0257514Y0153153D01*
X0257778Y0153333D01*
X0258045Y0153507D01*
X0258317Y0153674D01*
X0258592Y0153835D01*
X0258872Y0153989D01*
X0259155Y0154136D01*
X0259442Y0154276D01*
X0259732Y0154409D01*
X0260025Y0154534D01*
X0260321Y0154653D01*
X0260620Y0154764D01*
X0260922Y0154868D01*
X0261226Y0154964D01*
X0261533Y0155053D01*
X0261841Y0155134D01*
X0262152Y0155208D01*
X0262464Y0155274D01*
X0262777Y0155333D01*
X0263093Y0155383D01*
X0263409Y0155426D01*
X0263726Y0155461D01*
X0264044Y0155489D01*
X0264362Y0155508D01*
X0264681Y0155520D01*
X0265000Y0155524D01*
X0265319Y0155520D01*
X0265638Y0155508D01*
X0265956Y0155489D01*
X0266274Y0155461D01*
X0266591Y0155426D01*
X0266907Y0155383D01*
X0267223Y0155333D01*
X0267536Y0155274D01*
X0267848Y0155208D01*
X0268159Y0155134D01*
X0268467Y0155053D01*
X0268774Y0154964D01*
X0269078Y0154868D01*
X0269380Y0154764D01*
X0269679Y0154653D01*
X0269975Y0154534D01*
X0270268Y0154409D01*
X0270558Y0154276D01*
X0270845Y0154136D01*
X0271128Y0153989D01*
X0271408Y0153835D01*
X0271683Y0153674D01*
X0271955Y0153507D01*
X0272222Y0153333D01*
X0272486Y0153153D01*
X0272744Y0152966D01*
X0272998Y0152773D01*
X0273247Y0152573D01*
X0273491Y0152368D01*
X0273730Y0152156D01*
X0273964Y0151939D01*
X0274192Y0151716D01*
X0274415Y0151488D01*
X0274632Y0151254D01*
X0274844Y0151015D01*
X0275049Y0150771D01*
X0275249Y0150522D01*
X0275442Y0150268D01*
X0275629Y0150010D01*
X0275809Y0149746D01*
X0275983Y0149479D01*
X0276150Y0149207D01*
X0276311Y0148932D01*
X0276465Y0148652D01*
X0276612Y0148369D01*
X0276752Y0148082D01*
X0276885Y0147792D01*
X0277010Y0147499D01*
X0277129Y0147203D01*
X0277240Y0146904D01*
X0277344Y0146602D01*
X0277440Y0146298D01*
X0277529Y0145991D01*
X0277610Y0145683D01*
X0277684Y0145372D01*
X0277750Y0145060D01*
X0277809Y0144747D01*
X0277859Y0144431D01*
X0277902Y0144115D01*
X0277937Y0143798D01*
X0277965Y0143480D01*
X0277984Y0143162D01*
X0277996Y0142843D01*
X0278000Y0142524D01*
X0277996Y0142205D01*
X0277984Y0141886D01*
X0277965Y0141568D01*
X0277937Y0141250D01*
X0277902Y0140933D01*
X0277859Y0140617D01*
X0277809Y0140301D01*
X0277750Y0139988D01*
X0277684Y0139676D01*
X0277610Y0139365D01*
X0277529Y0139057D01*
X0277440Y0138750D01*
X0277344Y0138446D01*
X0277240Y0138144D01*
X0277129Y0137845D01*
X0277010Y0137549D01*
X0276885Y0137256D01*
X0276752Y0136966D01*
X0276612Y0136679D01*
X0276465Y0136396D01*
X0276311Y0136116D01*
X0276150Y0135841D01*
X0275983Y0135569D01*
X0275809Y0135302D01*
X0275629Y0135038D01*
X0275442Y0134780D01*
X0275249Y0134526D01*
X0275049Y0134277D01*
X0274844Y0134033D01*
X0274632Y0133794D01*
X0274415Y0133560D01*
X0274192Y0133332D01*
X0273964Y0133109D01*
X0273730Y0132892D01*
X0273491Y0132680D01*
X0273247Y0132475D01*
X0272998Y0132275D01*
X0272744Y0132082D01*
X0272486Y0131895D01*
X0272222Y0131715D01*
X0271955Y0131541D01*
X0271683Y0131374D01*
X0271408Y0131213D01*
X0271128Y0131059D01*
X0270845Y0130912D01*
X0270558Y0130772D01*
X0270268Y0130639D01*
X0269975Y0130514D01*
X0269679Y0130395D01*
X0269380Y0130284D01*
X0269078Y0130180D01*
X0268774Y0130084D01*
X0268467Y0129995D01*
X0268159Y0129914D01*
X0267848Y0129840D01*
X0267536Y0129774D01*
X0267223Y0129715D01*
X0266907Y0129665D01*
X0266591Y0129622D01*
X0266274Y0129587D01*
X0265956Y0129559D01*
X0265638Y0129540D01*
X0265319Y0129528D01*
X0265000Y0129524D01*
X0264681Y0129528D01*
X0264362Y0129540D01*
X0264044Y0129559D01*
X0263726Y0129587D01*
X0263409Y0129622D01*
X0263093Y0129665D01*
X0262777Y0129715D01*
X0262464Y0129774D01*
X0262152Y0129840D01*
X0261841Y0129914D01*
X0261533Y0129995D01*
X0261226Y0130084D01*
X0260922Y0130180D01*
X0260620Y0130284D01*
X0260321Y0130395D01*
X0260025Y0130514D01*
X0259732Y0130639D01*
X0259442Y0130772D01*
X0259155Y0130912D01*
X0258872Y0131059D01*
X0258592Y0131213D01*
X0258317Y0131374D01*
X0258045Y0131541D01*
X0257778Y0131715D01*
X0257514Y0131895D01*
X0257256Y0132082D01*
X0257002Y0132275D01*
X0256753Y0132475D01*
X0256509Y0132680D01*
X0256270Y0132892D01*
X0256036Y0133109D01*
X0255808Y0133332D01*
X0255585Y0133560D01*
X0255368Y0133794D01*
X0255156Y0134033D01*
X0254951Y0134277D01*
X0254751Y0134526D01*
X0254558Y0134780D01*
X0254371Y0135038D01*
X0254191Y0135302D01*
X0254017Y0135569D01*
X0253850Y0135841D01*
X0253689Y0136116D01*
X0253535Y0136396D01*
X0253388Y0136679D01*
X0253248Y0136966D01*
X0253115Y0137256D01*
X0252990Y0137549D01*
X0252871Y0137845D01*
X0252760Y0138144D01*
X0252656Y0138446D01*
X0252560Y0138750D01*
X0252471Y0139057D01*
X0252390Y0139365D01*
X0252316Y0139676D01*
X0252250Y0139988D01*
X0252191Y0140301D01*
X0252141Y0140617D01*
X0252098Y0140933D01*
X0252063Y0141250D01*
X0252035Y0141568D01*
X0252016Y0141886D01*
X0252004Y0142205D01*
X0252000Y0142524D01*
D16*
X0203483Y0271665D02*
X0205858Y0274040D01*
X0203034Y0277504D01*
X0203539Y0278420D01*
X0203939Y0279387D01*
X0204231Y0280393D01*
X0208677Y0280844D01*
X0208677Y0284203D01*
X0204231Y0284655D01*
X0203939Y0285660D01*
X0203539Y0286627D01*
X0203034Y0287544D01*
X0205858Y0291007D01*
X0203483Y0293382D01*
X0200020Y0290558D01*
X0199103Y0291063D01*
X0198136Y0291463D01*
X0197131Y0291754D01*
X0196679Y0296200D01*
X0193321Y0296200D01*
X0192869Y0291754D01*
X0191864Y0291463D01*
X0190897Y0291063D01*
X0189980Y0290558D01*
X0186517Y0293382D01*
X0184142Y0291007D01*
X0186966Y0287544D01*
X0186461Y0286627D01*
X0186061Y0285660D01*
X0185769Y0284655D01*
X0181323Y0284203D01*
X0181323Y0280844D01*
X0185769Y0280393D01*
X0186061Y0279387D01*
X0186461Y0278420D01*
X0186966Y0277504D01*
X0184142Y0274040D01*
X0186517Y0271665D01*
X0189980Y0274489D01*
X0190662Y0274101D01*
X0191374Y0273771D01*
X0193352Y0278545D01*
X0192709Y0278877D01*
X0192130Y0279313D01*
X0191633Y0279839D01*
X0191231Y0280441D01*
X0190935Y0281101D01*
X0190755Y0281802D01*
X0190694Y0282524D01*
X0190769Y0283328D01*
X0190994Y0284103D01*
X0191359Y0284824D01*
X0191853Y0285463D01*
X0192457Y0285999D01*
X0193150Y0286412D01*
X0193909Y0286689D01*
X0194706Y0286820D01*
X0195513Y0286799D01*
X0196303Y0286628D01*
X0197046Y0286313D01*
X0197717Y0285864D01*
X0198293Y0285298D01*
X0198753Y0284634D01*
X0199081Y0283896D01*
X0199266Y0283110D01*
X0199300Y0282303D01*
X0199184Y0281504D01*
X0198920Y0280741D01*
X0198518Y0280040D01*
X0197993Y0279427D01*
X0197362Y0278923D01*
X0196648Y0278545D01*
X0198626Y0273771D01*
X0199338Y0274101D01*
X0200020Y0274489D01*
X0203483Y0271665D01*
X0204048Y0272230D02*
X0202791Y0272230D01*
X0202069Y0272819D02*
X0204637Y0272819D01*
X0205226Y0273408D02*
X0201346Y0273408D01*
X0200624Y0273997D02*
X0205815Y0273997D01*
X0205413Y0274586D02*
X0198288Y0274586D01*
X0198532Y0273997D02*
X0199113Y0273997D01*
X0198044Y0275175D02*
X0204933Y0275175D01*
X0204452Y0275764D02*
X0197800Y0275764D01*
X0197556Y0276353D02*
X0203972Y0276353D01*
X0203492Y0276942D02*
X0197312Y0276942D01*
X0197068Y0277531D02*
X0203050Y0277531D01*
X0203374Y0278120D02*
X0196824Y0278120D01*
X0196959Y0278710D02*
X0203659Y0278710D01*
X0203903Y0279299D02*
X0197832Y0279299D01*
X0198387Y0279888D02*
X0204084Y0279888D01*
X0205059Y0280477D02*
X0198768Y0280477D01*
X0199032Y0281066D02*
X0208677Y0281066D01*
X0208677Y0281655D02*
X0199206Y0281655D01*
X0199292Y0282244D02*
X0208677Y0282244D01*
X0208677Y0282833D02*
X0199278Y0282833D01*
X0199193Y0283422D02*
X0208677Y0283422D01*
X0208677Y0284011D02*
X0199030Y0284011D01*
X0198769Y0284600D02*
X0204767Y0284600D01*
X0204076Y0285189D02*
X0198369Y0285189D01*
X0197805Y0285778D02*
X0203890Y0285778D01*
X0203646Y0286367D02*
X0196917Y0286367D01*
X0193075Y0286367D02*
X0186354Y0286367D01*
X0186110Y0285778D02*
X0192208Y0285778D01*
X0191642Y0285189D02*
X0185924Y0285189D01*
X0185233Y0284600D02*
X0191246Y0284600D01*
X0190967Y0284011D02*
X0181323Y0284011D01*
X0181323Y0283422D02*
X0190797Y0283422D01*
X0190723Y0282833D02*
X0181323Y0282833D01*
X0181323Y0282244D02*
X0190717Y0282244D01*
X0190793Y0281655D02*
X0181323Y0281655D01*
X0181323Y0281066D02*
X0190951Y0281066D01*
X0191215Y0280477D02*
X0184941Y0280477D01*
X0185916Y0279888D02*
X0191600Y0279888D01*
X0192149Y0279299D02*
X0186097Y0279299D01*
X0186341Y0278710D02*
X0193034Y0278710D01*
X0193176Y0278120D02*
X0186626Y0278120D01*
X0186950Y0277531D02*
X0192932Y0277531D01*
X0192688Y0276942D02*
X0186508Y0276942D01*
X0186028Y0276353D02*
X0192444Y0276353D01*
X0192200Y0275764D02*
X0185548Y0275764D01*
X0185067Y0275175D02*
X0191956Y0275175D01*
X0191712Y0274586D02*
X0184587Y0274586D01*
X0184185Y0273997D02*
X0189376Y0273997D01*
X0188654Y0273408D02*
X0184774Y0273408D01*
X0185363Y0272819D02*
X0187931Y0272819D01*
X0187209Y0272230D02*
X0185952Y0272230D01*
X0190887Y0273997D02*
X0191468Y0273997D01*
X0186643Y0286956D02*
X0203358Y0286956D01*
X0203036Y0287545D02*
X0186964Y0287545D01*
X0186484Y0288135D02*
X0203516Y0288135D01*
X0203996Y0288724D02*
X0186004Y0288724D01*
X0185523Y0289313D02*
X0204477Y0289313D01*
X0204957Y0289902D02*
X0185043Y0289902D01*
X0184563Y0290491D02*
X0205437Y0290491D01*
X0205785Y0291080D02*
X0200660Y0291080D01*
X0201383Y0291669D02*
X0205196Y0291669D01*
X0204607Y0292258D02*
X0202105Y0292258D01*
X0202828Y0292847D02*
X0204018Y0292847D01*
X0199061Y0291080D02*
X0190939Y0291080D01*
X0189340Y0291080D02*
X0184215Y0291080D01*
X0184804Y0291669D02*
X0188617Y0291669D01*
X0187895Y0292258D02*
X0185393Y0292258D01*
X0185982Y0292847D02*
X0187172Y0292847D01*
X0192574Y0291669D02*
X0197426Y0291669D01*
X0197080Y0292258D02*
X0192920Y0292258D01*
X0192980Y0292847D02*
X0197020Y0292847D01*
X0196960Y0293436D02*
X0193040Y0293436D01*
X0193100Y0294025D02*
X0196900Y0294025D01*
X0196840Y0294614D02*
X0193160Y0294614D01*
X0193220Y0295203D02*
X0196780Y0295203D01*
X0196721Y0295792D02*
X0193279Y0295792D01*
D17*
X0160000Y0179024D02*
X0160000Y0171524D01*
X0160126Y0171522D01*
X0160251Y0171516D01*
X0160376Y0171506D01*
X0160501Y0171492D01*
X0160626Y0171475D01*
X0160750Y0171453D01*
X0160873Y0171428D01*
X0160995Y0171398D01*
X0161116Y0171365D01*
X0161236Y0171328D01*
X0161355Y0171288D01*
X0161472Y0171243D01*
X0161589Y0171195D01*
X0161703Y0171143D01*
X0161816Y0171088D01*
X0161927Y0171029D01*
X0162036Y0170967D01*
X0162143Y0170901D01*
X0162248Y0170832D01*
X0162351Y0170760D01*
X0162452Y0170685D01*
X0162550Y0170606D01*
X0162645Y0170524D01*
X0162738Y0170440D01*
X0162828Y0170352D01*
X0162916Y0170262D01*
X0163000Y0170169D01*
X0163082Y0170074D01*
X0163161Y0169976D01*
X0163236Y0169875D01*
X0163308Y0169772D01*
X0163377Y0169667D01*
X0163443Y0169560D01*
X0163505Y0169451D01*
X0163564Y0169340D01*
X0163619Y0169227D01*
X0163671Y0169113D01*
X0163719Y0168996D01*
X0163764Y0168879D01*
X0163804Y0168760D01*
X0163841Y0168640D01*
X0163874Y0168519D01*
X0163904Y0168397D01*
X0163929Y0168274D01*
X0163951Y0168150D01*
X0163968Y0168025D01*
X0163982Y0167900D01*
X0163992Y0167775D01*
X0163998Y0167650D01*
X0164000Y0167524D01*
X0163998Y0167398D01*
X0163992Y0167273D01*
X0163982Y0167148D01*
X0163968Y0167023D01*
X0163951Y0166898D01*
X0163929Y0166774D01*
X0163904Y0166651D01*
X0163874Y0166529D01*
X0163841Y0166408D01*
X0163804Y0166288D01*
X0163764Y0166169D01*
X0163719Y0166052D01*
X0163671Y0165935D01*
X0163619Y0165821D01*
X0163564Y0165708D01*
X0163505Y0165597D01*
X0163443Y0165488D01*
X0163377Y0165381D01*
X0163308Y0165276D01*
X0163236Y0165173D01*
X0163161Y0165072D01*
X0163082Y0164974D01*
X0163000Y0164879D01*
X0162916Y0164786D01*
X0162828Y0164696D01*
X0162738Y0164608D01*
X0162645Y0164524D01*
X0162550Y0164442D01*
X0162452Y0164363D01*
X0162351Y0164288D01*
X0162248Y0164216D01*
X0162143Y0164147D01*
X0162036Y0164081D01*
X0161927Y0164019D01*
X0161816Y0163960D01*
X0161703Y0163905D01*
X0161589Y0163853D01*
X0161472Y0163805D01*
X0161355Y0163760D01*
X0161236Y0163720D01*
X0161116Y0163683D01*
X0160995Y0163650D01*
X0160873Y0163620D01*
X0160750Y0163595D01*
X0160626Y0163573D01*
X0160501Y0163556D01*
X0160376Y0163542D01*
X0160251Y0163532D01*
X0160126Y0163526D01*
X0160000Y0163524D01*
X0160000Y0156024D01*
X0240000Y0156024D01*
X0240000Y0179024D01*
X0160000Y0179024D01*
M02*
