%
M48
M72
T01C0.0200
T02C0.0276
T03C0.0315
T04C0.0354
T05C0.0394
T06C0.0400
T07C0.0440
T08C0.1300
%
T01
X19150Y13352
X25900Y13602
X27350Y18602
X27800Y21002
X28150Y22402
X12000Y16402
T02
X14500Y15752
X14500Y14752
X16500Y14752
X16500Y15752
X16500Y17252
X16500Y18252
X14500Y18252
X14500Y17252
T03
X14650Y10426
X15650Y10426
X16650Y10426
X17650Y10426
X18650Y10426
X19650Y10426
X20650Y10426
X21650Y10426
X22650Y10426
X23650Y10426
X24650Y10426
X25650Y10426
X26650Y10426
X27650Y10426
X28650Y10426
X29650Y10426
T04
X25125Y13752
X25125Y14752
X25125Y15752
X17000Y20252
X14500Y20252
X14500Y25252
X17000Y25252
T05
X13709Y27252
X12331Y27252
T06
X10500Y10252
X10500Y11252
X10500Y12252
X10500Y13252
X10500Y14252
X10500Y15252
X10500Y16252
X10500Y17252
X10500Y18252
X10500Y19252
X12500Y18682
X12500Y19822
X12500Y21182
X12500Y22322
X10500Y22752
X10500Y23752
X10500Y24752
X10500Y25752
X10500Y26752
X10500Y27752
X12500Y24822
X12500Y23682
X10500Y21752
X10500Y20752
X12500Y15752
X12500Y14752
X12500Y13752
X27500Y14252
X27500Y15252
X27500Y16252
X29500Y15752
X29500Y14752
X29500Y13752
X29500Y16752
X29500Y17752
X29500Y18752
X29500Y19752
X29500Y20752
X29500Y22752
X29500Y23752
X29500Y24752
X29500Y25752
X29500Y26752
X29500Y27752
X26500Y28752
X25500Y28752
X24500Y28752
X23500Y28752
T07
X19000Y25252
X19000Y24252
X19000Y23252
X19000Y20252
X19000Y19252
X19000Y18252
X19500Y16752
X18000Y16752
X18000Y12752
X19500Y12752
T08
X24900Y19252
X24900Y24252
M30
