G75*
%MOIN*%
%OFA0B0*%
%FSLAX25Y25*%
%IPPOS*%
%LPD*%
%AMOC8*
5,1,8,0,0,1.08239X$1,22.5*
%
%ADD10C,0.01600*%
%ADD11C,0.00000*%
D10*
X0095000Y0092524D02*
X0095000Y0297524D01*
X0305000Y0297524D01*
X0305000Y0092524D01*
X0095000Y0092524D01*
D11*
X0242500Y0192524D02*
X0242502Y0192685D01*
X0242508Y0192845D01*
X0242518Y0193006D01*
X0242532Y0193166D01*
X0242550Y0193326D01*
X0242571Y0193485D01*
X0242597Y0193644D01*
X0242627Y0193802D01*
X0242660Y0193959D01*
X0242698Y0194116D01*
X0242739Y0194271D01*
X0242784Y0194425D01*
X0242833Y0194578D01*
X0242886Y0194730D01*
X0242942Y0194881D01*
X0243003Y0195030D01*
X0243066Y0195178D01*
X0243134Y0195324D01*
X0243205Y0195468D01*
X0243279Y0195610D01*
X0243357Y0195751D01*
X0243439Y0195889D01*
X0243524Y0196026D01*
X0243612Y0196160D01*
X0243704Y0196292D01*
X0243799Y0196422D01*
X0243897Y0196550D01*
X0243998Y0196675D01*
X0244102Y0196797D01*
X0244209Y0196917D01*
X0244319Y0197034D01*
X0244432Y0197149D01*
X0244548Y0197260D01*
X0244667Y0197369D01*
X0244788Y0197474D01*
X0244912Y0197577D01*
X0245038Y0197677D01*
X0245166Y0197773D01*
X0245297Y0197866D01*
X0245431Y0197956D01*
X0245566Y0198043D01*
X0245704Y0198126D01*
X0245843Y0198206D01*
X0245985Y0198282D01*
X0246128Y0198355D01*
X0246273Y0198424D01*
X0246420Y0198490D01*
X0246568Y0198552D01*
X0246718Y0198610D01*
X0246869Y0198665D01*
X0247022Y0198716D01*
X0247176Y0198763D01*
X0247331Y0198806D01*
X0247487Y0198845D01*
X0247643Y0198881D01*
X0247801Y0198912D01*
X0247959Y0198940D01*
X0248118Y0198964D01*
X0248278Y0198984D01*
X0248438Y0199000D01*
X0248598Y0199012D01*
X0248759Y0199020D01*
X0248920Y0199024D01*
X0249080Y0199024D01*
X0249241Y0199020D01*
X0249402Y0199012D01*
X0249562Y0199000D01*
X0249722Y0198984D01*
X0249882Y0198964D01*
X0250041Y0198940D01*
X0250199Y0198912D01*
X0250357Y0198881D01*
X0250513Y0198845D01*
X0250669Y0198806D01*
X0250824Y0198763D01*
X0250978Y0198716D01*
X0251131Y0198665D01*
X0251282Y0198610D01*
X0251432Y0198552D01*
X0251580Y0198490D01*
X0251727Y0198424D01*
X0251872Y0198355D01*
X0252015Y0198282D01*
X0252157Y0198206D01*
X0252296Y0198126D01*
X0252434Y0198043D01*
X0252569Y0197956D01*
X0252703Y0197866D01*
X0252834Y0197773D01*
X0252962Y0197677D01*
X0253088Y0197577D01*
X0253212Y0197474D01*
X0253333Y0197369D01*
X0253452Y0197260D01*
X0253568Y0197149D01*
X0253681Y0197034D01*
X0253791Y0196917D01*
X0253898Y0196797D01*
X0254002Y0196675D01*
X0254103Y0196550D01*
X0254201Y0196422D01*
X0254296Y0196292D01*
X0254388Y0196160D01*
X0254476Y0196026D01*
X0254561Y0195889D01*
X0254643Y0195751D01*
X0254721Y0195610D01*
X0254795Y0195468D01*
X0254866Y0195324D01*
X0254934Y0195178D01*
X0254997Y0195030D01*
X0255058Y0194881D01*
X0255114Y0194730D01*
X0255167Y0194578D01*
X0255216Y0194425D01*
X0255261Y0194271D01*
X0255302Y0194116D01*
X0255340Y0193959D01*
X0255373Y0193802D01*
X0255403Y0193644D01*
X0255429Y0193485D01*
X0255450Y0193326D01*
X0255468Y0193166D01*
X0255482Y0193006D01*
X0255492Y0192845D01*
X0255498Y0192685D01*
X0255500Y0192524D01*
X0255498Y0192363D01*
X0255492Y0192203D01*
X0255482Y0192042D01*
X0255468Y0191882D01*
X0255450Y0191722D01*
X0255429Y0191563D01*
X0255403Y0191404D01*
X0255373Y0191246D01*
X0255340Y0191089D01*
X0255302Y0190932D01*
X0255261Y0190777D01*
X0255216Y0190623D01*
X0255167Y0190470D01*
X0255114Y0190318D01*
X0255058Y0190167D01*
X0254997Y0190018D01*
X0254934Y0189870D01*
X0254866Y0189724D01*
X0254795Y0189580D01*
X0254721Y0189438D01*
X0254643Y0189297D01*
X0254561Y0189159D01*
X0254476Y0189022D01*
X0254388Y0188888D01*
X0254296Y0188756D01*
X0254201Y0188626D01*
X0254103Y0188498D01*
X0254002Y0188373D01*
X0253898Y0188251D01*
X0253791Y0188131D01*
X0253681Y0188014D01*
X0253568Y0187899D01*
X0253452Y0187788D01*
X0253333Y0187679D01*
X0253212Y0187574D01*
X0253088Y0187471D01*
X0252962Y0187371D01*
X0252834Y0187275D01*
X0252703Y0187182D01*
X0252569Y0187092D01*
X0252434Y0187005D01*
X0252296Y0186922D01*
X0252157Y0186842D01*
X0252015Y0186766D01*
X0251872Y0186693D01*
X0251727Y0186624D01*
X0251580Y0186558D01*
X0251432Y0186496D01*
X0251282Y0186438D01*
X0251131Y0186383D01*
X0250978Y0186332D01*
X0250824Y0186285D01*
X0250669Y0186242D01*
X0250513Y0186203D01*
X0250357Y0186167D01*
X0250199Y0186136D01*
X0250041Y0186108D01*
X0249882Y0186084D01*
X0249722Y0186064D01*
X0249562Y0186048D01*
X0249402Y0186036D01*
X0249241Y0186028D01*
X0249080Y0186024D01*
X0248920Y0186024D01*
X0248759Y0186028D01*
X0248598Y0186036D01*
X0248438Y0186048D01*
X0248278Y0186064D01*
X0248118Y0186084D01*
X0247959Y0186108D01*
X0247801Y0186136D01*
X0247643Y0186167D01*
X0247487Y0186203D01*
X0247331Y0186242D01*
X0247176Y0186285D01*
X0247022Y0186332D01*
X0246869Y0186383D01*
X0246718Y0186438D01*
X0246568Y0186496D01*
X0246420Y0186558D01*
X0246273Y0186624D01*
X0246128Y0186693D01*
X0245985Y0186766D01*
X0245843Y0186842D01*
X0245704Y0186922D01*
X0245566Y0187005D01*
X0245431Y0187092D01*
X0245297Y0187182D01*
X0245166Y0187275D01*
X0245038Y0187371D01*
X0244912Y0187471D01*
X0244788Y0187574D01*
X0244667Y0187679D01*
X0244548Y0187788D01*
X0244432Y0187899D01*
X0244319Y0188014D01*
X0244209Y0188131D01*
X0244102Y0188251D01*
X0243998Y0188373D01*
X0243897Y0188498D01*
X0243799Y0188626D01*
X0243704Y0188756D01*
X0243612Y0188888D01*
X0243524Y0189022D01*
X0243439Y0189159D01*
X0243357Y0189297D01*
X0243279Y0189438D01*
X0243205Y0189580D01*
X0243134Y0189724D01*
X0243066Y0189870D01*
X0243003Y0190018D01*
X0242942Y0190167D01*
X0242886Y0190318D01*
X0242833Y0190470D01*
X0242784Y0190623D01*
X0242739Y0190777D01*
X0242698Y0190932D01*
X0242660Y0191089D01*
X0242627Y0191246D01*
X0242597Y0191404D01*
X0242571Y0191563D01*
X0242550Y0191722D01*
X0242532Y0191882D01*
X0242518Y0192042D01*
X0242508Y0192203D01*
X0242502Y0192363D01*
X0242500Y0192524D01*
X0242500Y0242524D02*
X0242502Y0242685D01*
X0242508Y0242845D01*
X0242518Y0243006D01*
X0242532Y0243166D01*
X0242550Y0243326D01*
X0242571Y0243485D01*
X0242597Y0243644D01*
X0242627Y0243802D01*
X0242660Y0243959D01*
X0242698Y0244116D01*
X0242739Y0244271D01*
X0242784Y0244425D01*
X0242833Y0244578D01*
X0242886Y0244730D01*
X0242942Y0244881D01*
X0243003Y0245030D01*
X0243066Y0245178D01*
X0243134Y0245324D01*
X0243205Y0245468D01*
X0243279Y0245610D01*
X0243357Y0245751D01*
X0243439Y0245889D01*
X0243524Y0246026D01*
X0243612Y0246160D01*
X0243704Y0246292D01*
X0243799Y0246422D01*
X0243897Y0246550D01*
X0243998Y0246675D01*
X0244102Y0246797D01*
X0244209Y0246917D01*
X0244319Y0247034D01*
X0244432Y0247149D01*
X0244548Y0247260D01*
X0244667Y0247369D01*
X0244788Y0247474D01*
X0244912Y0247577D01*
X0245038Y0247677D01*
X0245166Y0247773D01*
X0245297Y0247866D01*
X0245431Y0247956D01*
X0245566Y0248043D01*
X0245704Y0248126D01*
X0245843Y0248206D01*
X0245985Y0248282D01*
X0246128Y0248355D01*
X0246273Y0248424D01*
X0246420Y0248490D01*
X0246568Y0248552D01*
X0246718Y0248610D01*
X0246869Y0248665D01*
X0247022Y0248716D01*
X0247176Y0248763D01*
X0247331Y0248806D01*
X0247487Y0248845D01*
X0247643Y0248881D01*
X0247801Y0248912D01*
X0247959Y0248940D01*
X0248118Y0248964D01*
X0248278Y0248984D01*
X0248438Y0249000D01*
X0248598Y0249012D01*
X0248759Y0249020D01*
X0248920Y0249024D01*
X0249080Y0249024D01*
X0249241Y0249020D01*
X0249402Y0249012D01*
X0249562Y0249000D01*
X0249722Y0248984D01*
X0249882Y0248964D01*
X0250041Y0248940D01*
X0250199Y0248912D01*
X0250357Y0248881D01*
X0250513Y0248845D01*
X0250669Y0248806D01*
X0250824Y0248763D01*
X0250978Y0248716D01*
X0251131Y0248665D01*
X0251282Y0248610D01*
X0251432Y0248552D01*
X0251580Y0248490D01*
X0251727Y0248424D01*
X0251872Y0248355D01*
X0252015Y0248282D01*
X0252157Y0248206D01*
X0252296Y0248126D01*
X0252434Y0248043D01*
X0252569Y0247956D01*
X0252703Y0247866D01*
X0252834Y0247773D01*
X0252962Y0247677D01*
X0253088Y0247577D01*
X0253212Y0247474D01*
X0253333Y0247369D01*
X0253452Y0247260D01*
X0253568Y0247149D01*
X0253681Y0247034D01*
X0253791Y0246917D01*
X0253898Y0246797D01*
X0254002Y0246675D01*
X0254103Y0246550D01*
X0254201Y0246422D01*
X0254296Y0246292D01*
X0254388Y0246160D01*
X0254476Y0246026D01*
X0254561Y0245889D01*
X0254643Y0245751D01*
X0254721Y0245610D01*
X0254795Y0245468D01*
X0254866Y0245324D01*
X0254934Y0245178D01*
X0254997Y0245030D01*
X0255058Y0244881D01*
X0255114Y0244730D01*
X0255167Y0244578D01*
X0255216Y0244425D01*
X0255261Y0244271D01*
X0255302Y0244116D01*
X0255340Y0243959D01*
X0255373Y0243802D01*
X0255403Y0243644D01*
X0255429Y0243485D01*
X0255450Y0243326D01*
X0255468Y0243166D01*
X0255482Y0243006D01*
X0255492Y0242845D01*
X0255498Y0242685D01*
X0255500Y0242524D01*
X0255498Y0242363D01*
X0255492Y0242203D01*
X0255482Y0242042D01*
X0255468Y0241882D01*
X0255450Y0241722D01*
X0255429Y0241563D01*
X0255403Y0241404D01*
X0255373Y0241246D01*
X0255340Y0241089D01*
X0255302Y0240932D01*
X0255261Y0240777D01*
X0255216Y0240623D01*
X0255167Y0240470D01*
X0255114Y0240318D01*
X0255058Y0240167D01*
X0254997Y0240018D01*
X0254934Y0239870D01*
X0254866Y0239724D01*
X0254795Y0239580D01*
X0254721Y0239438D01*
X0254643Y0239297D01*
X0254561Y0239159D01*
X0254476Y0239022D01*
X0254388Y0238888D01*
X0254296Y0238756D01*
X0254201Y0238626D01*
X0254103Y0238498D01*
X0254002Y0238373D01*
X0253898Y0238251D01*
X0253791Y0238131D01*
X0253681Y0238014D01*
X0253568Y0237899D01*
X0253452Y0237788D01*
X0253333Y0237679D01*
X0253212Y0237574D01*
X0253088Y0237471D01*
X0252962Y0237371D01*
X0252834Y0237275D01*
X0252703Y0237182D01*
X0252569Y0237092D01*
X0252434Y0237005D01*
X0252296Y0236922D01*
X0252157Y0236842D01*
X0252015Y0236766D01*
X0251872Y0236693D01*
X0251727Y0236624D01*
X0251580Y0236558D01*
X0251432Y0236496D01*
X0251282Y0236438D01*
X0251131Y0236383D01*
X0250978Y0236332D01*
X0250824Y0236285D01*
X0250669Y0236242D01*
X0250513Y0236203D01*
X0250357Y0236167D01*
X0250199Y0236136D01*
X0250041Y0236108D01*
X0249882Y0236084D01*
X0249722Y0236064D01*
X0249562Y0236048D01*
X0249402Y0236036D01*
X0249241Y0236028D01*
X0249080Y0236024D01*
X0248920Y0236024D01*
X0248759Y0236028D01*
X0248598Y0236036D01*
X0248438Y0236048D01*
X0248278Y0236064D01*
X0248118Y0236084D01*
X0247959Y0236108D01*
X0247801Y0236136D01*
X0247643Y0236167D01*
X0247487Y0236203D01*
X0247331Y0236242D01*
X0247176Y0236285D01*
X0247022Y0236332D01*
X0246869Y0236383D01*
X0246718Y0236438D01*
X0246568Y0236496D01*
X0246420Y0236558D01*
X0246273Y0236624D01*
X0246128Y0236693D01*
X0245985Y0236766D01*
X0245843Y0236842D01*
X0245704Y0236922D01*
X0245566Y0237005D01*
X0245431Y0237092D01*
X0245297Y0237182D01*
X0245166Y0237275D01*
X0245038Y0237371D01*
X0244912Y0237471D01*
X0244788Y0237574D01*
X0244667Y0237679D01*
X0244548Y0237788D01*
X0244432Y0237899D01*
X0244319Y0238014D01*
X0244209Y0238131D01*
X0244102Y0238251D01*
X0243998Y0238373D01*
X0243897Y0238498D01*
X0243799Y0238626D01*
X0243704Y0238756D01*
X0243612Y0238888D01*
X0243524Y0239022D01*
X0243439Y0239159D01*
X0243357Y0239297D01*
X0243279Y0239438D01*
X0243205Y0239580D01*
X0243134Y0239724D01*
X0243066Y0239870D01*
X0243003Y0240018D01*
X0242942Y0240167D01*
X0242886Y0240318D01*
X0242833Y0240470D01*
X0242784Y0240623D01*
X0242739Y0240777D01*
X0242698Y0240932D01*
X0242660Y0241089D01*
X0242627Y0241246D01*
X0242597Y0241404D01*
X0242571Y0241563D01*
X0242550Y0241722D01*
X0242532Y0241882D01*
X0242518Y0242042D01*
X0242508Y0242203D01*
X0242502Y0242363D01*
X0242500Y0242524D01*
M02*
